<?xml version="1.0" encoding="UTF-8" standalone="no"?>
<!-- Created with Inkscape (http://www.inkscape.org/) -->

<svg
   xmlns:dc="http://purl.org/dc/elements/1.1/"
   xmlns:cc="http://creativecommons.org/ns#"
   xmlns:rdf="http://www.w3.org/1999/02/22-rdf-syntax-ns#"
   xmlns:svg="http://www.w3.org/2000/svg"
   xmlns="http://www.w3.org/2000/svg"
   xmlns:sodipodi="http://sodipodi.sourceforge.net/DTD/sodipodi-0.dtd"
   xmlns:inkscape="http://www.inkscape.org/namespaces/inkscape"
   width="150mm"
   height="105mm"
   viewBox="0 0 150 105"
   version="1.1"
   id="svg8"
   inkscape:version="0.92.5 (2060ec1f9f, 2020-04-08)"
   sodipodi:docname="h525.svg">
  <defs
     id="defs2" />
  <sodipodi:namedview
     id="base"
     pagecolor="#ffffff"
     bordercolor="#666666"
     borderopacity="1.0"
     inkscape:pageopacity="0.0"
     inkscape:pageshadow="2"
     inkscape:zoom="0.98994949"
     inkscape:cx="375.50737"
     inkscape:cy="111.33674"
     inkscape:document-units="mm"
     inkscape:current-layer="layer1"
     showgrid="false"
     inkscape:window-width="1920"
     inkscape:window-height="1015"
     inkscape:window-x="0"
     inkscape:window-y="0"
     inkscape:window-maximized="1" />
  <metadata
     id="metadata5">
    <rdf:RDF>
      <cc:Work
         rdf:about="">
        <dc:format>image/svg+xml</dc:format>
        <dc:type
           rdf:resource="http://purl.org/dc/dcmitype/StillImage" />
        <dc:title></dc:title>
      </cc:Work>
    </rdf:RDF>
  </metadata>
  <g
     inkscape:label="Layer 1"
     inkscape:groupmode="layer"
     id="layer1"
     transform="translate(0,-192)">
    <g
       id="g3824"
       transform="translate(-31.09236,168.00805)">
      <path
         style="fill:#989999;stroke-width:0.26458335"
         d="m 111.18151,128.77198 c -1.01865,-0.12582 -4.2667,-0.68931 -7.21789,-1.2522 -4.610402,-0.87936 -5.563656,-0.98758 -6.771162,-0.76871 -1.186457,0.21506 -2.122762,0.12013 -6.011278,-0.60945 -3.791926,-0.71145 -4.863102,-1.0157 -6.061133,-1.72154 -1.24179,-0.73162 -2.308884,-1.01842 -7.276042,-1.95556 -10.339028,-1.95064 -15.718807,-2.98143 -23.68021,-4.53725 l -7.805209,-1.52529 -3.551078,-1.81234 c -1.953094,-0.99679 -4.0609,-2.13363 -4.684012,-2.5263 -1.328359,-0.8371 -2.215952,-2.38522 -2.215952,-3.86502 0,-0.89473 0.195254,-1.22657 1.504461,-2.55684 l 1.50446,-1.52868 -0.816314,-0.69484 c -1.282539,-1.09168 -1.479229,-1.67903 -1.128327,-3.36932 0.388338,-1.87061 1.143164,-2.721897 4.709955,-5.311853 1.553597,-1.128117 6.932381,-5.078616 11.95285,-8.778888 5.020469,-3.700272 9.637189,-7.000208 10.259375,-7.333192 2.322513,-1.242962 3.076967,-1.26253 14.479141,-0.375546 5.783273,0.449886 10.57746,0.755554 10.653748,0.679267 0.07629,-0.07629 -0.01304,-1.025824 -0.198507,-2.110081 -0.310536,-1.815407 -0.290264,-2.161384 0.256225,-4.373081 0.48313,-1.955263 0.74158,-2.526358 1.39037,-3.072278 0.438311,-0.368816 0.717661,-0.74984 0.620781,-0.846723 -0.09688,-0.09688 -3.356287,-0.332769 -7.24312,-0.524195 -3.886835,-0.191428 -7.403616,-0.482719 -7.815069,-0.647316 -0.411457,-0.164597 -0.926172,-0.571042 -1.143818,-0.903208 -0.6071,-0.926553 -0.967981,-4.104172 -0.619829,-5.457717 0.275619,-1.071557 4.617083,-10.309182 11.228222,-23.891044 1.630166,-3.348996 3.347405,-6.52583 3.816088,-7.059629 1.081024,-1.231219 2.676541,-2.004536 4.533061,-2.19709 0.800365,-0.08301 9.789583,-0.565875 19.976043,-1.073029 10.18646,-0.507154 26.42001,-1.336404 36.07456,-1.842778 21.2879,-1.116534 22.52829,-1.133264 24.12218,-0.325367 0.6472,0.328047 1.38932,0.969899 1.65301,1.429673 1.13098,1.97203 1.12091,2.025085 -4.15841,21.919806 -2.70311,10.186459 -5.10997,18.96798 -5.34858,19.514492 -1.08248,2.479369 -3.41416,3.936683 -6.56984,4.106204 -1.80919,0.09719 -10.7359,-0.266475 -22.0694,-0.899086 l -3.01941,-0.168534 0.59203,0.957919 c 0.83548,1.351833 1.70651,6.812676 1.49001,9.341458 l -0.16235,1.896203 1.66268,0.162255 c 0.91448,0.08924 4.75543,0.400082 8.53544,0.690761 3.78002,0.290677 7.31543,0.661133 7.85647,0.823233 2.2589,0.676783 3.9239,2.893634 3.9239,5.224441 0,1.318681 0.002,1.321848 0.99219,1.501235 1.06723,0.193366 3.34968,1.704081 3.77484,2.498511 0.66673,1.245791 0.30492,1.684393 -1.56886,1.901838 -0.52668,0.06112 -2.28724,2.60739 -10.06845,14.561889 -5.18659,7.9683 -9.89998,14.973 -10.47421,15.56599 -1.32535,1.36868 -2.73956,2.19545 -4.74822,2.77587 -1.37156,0.39634 -3.06308,0.46778 -12.43541,0.52521 -5.96636,0.0366 -11.68136,-0.0365 -12.7,-0.16228 z M 84.723172,113.96803 c 0,-0.30592 -0.757285,-0.50647 -3.307292,-0.87589 -1.819011,-0.26351 -5.569479,-1.0185 -8.334375,-1.67775 -9.26695,-2.20959 -9.943257,-2.33678 -10.207465,-1.91972 -0.299233,0.47234 -0.613851,2.0745 -0.441266,2.24708 0.07173,0.0717 1.544537,0.25307 3.272906,0.40297 6.936669,0.60163 13.315078,1.35586 15.445617,1.82641 2.58127,0.5701 3.571875,0.56924 3.571875,-0.003 z m 63.037198,-12.50168 c 1.64397,-2.318919 2.36532,-3.496997 1.34233,-2.192263 -1.08189,1.379853 -3.1467,4.375073 -3.01604,4.375073 0.0694,0 0.82259,-0.98226 1.67371,-2.18281 z M 81.271759,97.071854 c 0.178811,-0.563388 -0.06333,-1.360191 -0.413353,-1.360191 -0.129951,0 -0.236276,0.193172 -0.236276,0.429271 0,0.351578 -0.07183,0.369657 -0.396875,0.0999 -0.334455,-0.277572 -0.396875,-0.227182 -0.396875,0.320381 0,0.357368 0.07937,0.729134 0.17639,0.826146 0.353488,0.353488 1.114832,0.163901 1.266989,-0.315503 z m 15.987935,-7.156151 c 0.292907,-0.185512 0.266153,-0.263197 -0.134445,-0.390342 -0.275071,-0.08731 -0.79516,-0.636103 -1.15575,-1.219549 -0.760429,-1.230398 -1.189358,-1.376252 -0.979901,-0.333211 0.312582,1.556573 0.687025,2.182905 1.302547,2.178761 0.331023,-0.0021 0.766421,-0.108275 0.967549,-0.235659 z"
         id="path3838"
         inkscape:connector-curvature="0" />
      <path
         style="fill:#53a5c1;stroke-width:0.26458335"
         d="m 112.76901,128.51454 c -1.60073,-0.12057 -5.46058,-0.71001 -8.57744,-1.30986 -4.947815,-0.95223 -5.830958,-1.05549 -6.958768,-0.81361 -1.871935,0.40146 -10.35035,-1.25387 -12.112755,-2.36489 -0.955038,-0.60206 -2.185329,-0.94022 -6.217709,-1.70898 -11.542081,-2.20047 -16.558901,-3.16616 -24.176674,-4.65378 l -8.037089,-1.5695 -3.73687,-1.8916 c -4.336767,-2.19526 -5.881801,-3.194 -6.124628,-3.95908 -0.267658,-0.84332 -0.02533,-0.86533 1.426613,-0.12957 0.737237,0.37358 1.56538,0.67924 1.840322,0.67924 0.460388,0 0.478899,-0.10977 0.234254,-1.38906 -0.146097,-0.76398 -0.605218,-1.859 -1.020262,-2.43337 -1.124589,-1.5563 -1.024017,-1.96117 0.474189,-1.90894 0.675846,0.0235 1.27136,-0.0768 1.323364,-0.2231 0.052,-0.14625 -0.481889,-0.53037 -1.186424,-0.85358 -0.704535,-0.32321 -1.608586,-0.91527 -2.009003,-1.31569 -0.629834,-0.62983 -0.70562,-0.86816 -0.561889,-1.76701 0.230918,-1.444076 0.28969,-1.488973 1.405553,-1.073675 0.544616,0.202695 6.526615,1.199215 13.293334,2.214495 63.600662,9.54265 78.111152,11.65722 79.782472,11.62647 l 1.84149,-0.0339 -2.64583,-0.34506 c -3.50692,-0.45736 -35.101812,-5.23809 -39.303382,-5.94713 -1.811997,-0.30579 -4.187508,-0.66289 -5.278914,-0.79356 -3.867013,-0.46298 -10.990488,-1.61212 -11.704062,-1.88807 -0.398118,-0.15396 -1.231556,-0.31104 -1.852083,-0.34908 -2.680486,-0.16429 -30.224089,-4.16552 -32.850499,-4.77215 -1.736052,-0.400981 -2.158132,-0.685445 -1.923662,-1.296466 0.08729,-0.227478 1.575989,-1.455873 3.308216,-2.729765 1.732224,-1.273892 7.404055,-5.453755 12.604065,-9.288587 5.20001,-3.834831 10.000383,-7.213862 10.667495,-7.508957 1.868599,-0.826569 3.645192,-0.822893 14.474488,0.02994 5.529792,0.435483 10.154761,0.692804 10.277711,0.571818 0.122949,-0.120984 0.03397,-1.13664 -0.197726,-2.257012 -0.403104,-1.949207 -0.39765,-2.130084 0.126479,-4.194998 0.301259,-1.186876 0.660958,-2.273898 0.799327,-2.415601 0.138369,-0.141706 1.130583,-0.220962 2.204919,-0.176125 1.438907,0.06005 2.120439,-0.02797 2.587823,-0.334209 0.485291,-0.317976 0.817729,-0.355076 1.413807,-0.157789 1.060103,0.350872 30.084858,1.835763 30.395018,1.554996 0.13583,-0.122944 0.19304,-0.277445 0.12715,-0.343332 -0.0659,-0.06589 -6.01107,-0.422539 -13.21153,-0.792559 -17.75975,-0.912643 -17.377705,-0.879983 -17.539678,-1.499367 -0.09675,-0.369983 -0.367556,-0.507513 -0.999315,-0.507513 -1.655501,0 -17.048843,-0.800151 -18.159485,-0.943933 -1.515724,-0.196229 -2.100088,-0.989846 -2.333461,-3.169058 -0.208222,-1.944357 0.07676,-3.375205 1.104598,-5.546039 0.731306,-1.54454 1.155404,-1.850303 1.155404,-0.83302 0,0.341249 0.224711,0.823812 0.499354,1.072362 0.445526,0.403196 1.964287,0.491111 14.089063,0.81558 7.474342,0.200017 17.10205,0.421701 21.39492,0.492628 10.66641,0.176228 4.91417,-0.158342 -16.933336,-0.984903 -16.778344,-0.634778 -18.034533,-0.750629 -18.63261,-1.71834 -0.09701,-0.156961 0.416925,-1.568092 1.142071,-3.135852 0.725147,-1.567757 1.40261,-3.207655 1.505474,-3.644217 0.102868,-0.436563 1.001723,-2.408849 1.997462,-4.382857 0.995738,-1.974009 1.887688,-3.998072 1.98211,-4.497917 0.280937,-1.487199 2.417159,-5.749904 3.108547,-6.202918 0.349309,-0.228878 0.955313,-1.155396 1.346677,-2.058932 1.008716,-2.328814 1.86482,-3.332711 3.467965,-4.066655 1.314826,-0.601947 1.979584,-0.670802 11.1408,-1.153954 5.3584,-0.282595 13.79067,-0.755261 18.73838,-1.050368 29.57021,-1.763718 46.87656,-2.675995 49.08021,-2.587185 3.84709,0.155043 5.02709,1.068995 5.02709,3.893683 0,0.886207 -1.46098,6.826021 -4.34716,17.674075 -2.39094,8.986602 -4.60811,17.380649 -4.92705,18.653435 -0.31893,1.272783 -0.91605,2.844239 -1.32692,3.492119 -0.86004,1.35614 -2.96206,2.691318 -4.63107,2.9416 -0.59369,0.08903 -7.59811,-0.15654 -15.56538,-0.545711 -12.92828,-0.631499 -14.53358,-0.664657 -14.92907,-0.308372 -0.24373,0.219567 -0.85987,0.438285 -1.36919,0.486043 -0.70677,0.06627 -0.94495,0.21931 -1.0059,0.646329 -0.0947,0.66367 0.72119,0.89571 3.14954,0.89571 1.35959,0 1.60116,-0.08063 1.98173,-0.661459 0.53587,-0.817842 1.44735,-0.854926 1.93217,-0.07861 0.2002,0.320567 0.6324,2.195801 0.96046,4.167188 0.47896,2.878177 0.54752,3.89591 0.34801,5.165812 -0.20619,1.312452 -0.17977,1.631701 0.15536,1.876748 0.22209,0.162401 2.34135,0.438547 4.70945,0.613658 13.38701,0.989915 14.22086,1.127443 15.57496,2.568816 0.55433,0.590053 0.58004,0.717878 0.24977,1.241864 -0.86866,1.378199 -1.05453,1.894092 -0.78015,2.165332 0.18769,0.185539 0.51663,-0.02085 1.04426,-0.655182 l 0.77027,-0.926042 0.007,1.406456 c 0.01,1.955985 0.35533,2.522175 1.41896,2.325762 0.6879,-0.127027 1.0458,0.01124 2.0078,0.775681 2.11059,1.677133 2.33481,2.503559 0.67925,2.503559 -0.70396,0 -1.03502,0.185029 -1.53856,0.859896 -0.35289,0.472943 -4.73449,7.167604 -9.73691,14.877014 -5.00241,7.70941 -9.53684,14.46127 -10.07651,15.00412 -1.20448,1.21161 -2.58905,1.93723 -4.76515,2.49733 -1.34303,0.34567 -3.43908,0.44213 -10.92239,0.50262 -5.09323,0.0412 -10.5701,-0.0238 -12.17083,-0.14435 z m 24.60625,-13.69167 c 1.25722,-0.64024 2.51354,-1.67837 2.51354,-2.07699 0,-0.43114 -0.68506,-0.49081 -0.93791,-0.0817 -0.0965,0.15609 -1.08001,0.69604 -2.18564,1.19989 -2.31324,1.05418 -2.28031,1.03115 -2.03713,1.42463 0.21706,0.35121 1.47871,0.12918 2.64714,-0.46585 z m -52.30813,-0.11412 c 0.477258,-0.47726 0.382291,-1.21671 -0.196011,-1.52621 -0.282432,-0.15115 -2.061919,-0.44667 -3.95442,-0.65671 -3.673367,-0.40769 -4.322906,-0.54492 -8.232069,-1.73929 -2.761041,-0.84358 -8.407322,-2.11029 -9.406486,-2.11029 -0.540853,0 -0.695542,0.21548 -1.06363,1.48166 -0.283382,0.9748 -0.341392,1.571 -0.169577,1.74281 0.407736,0.40774 4.79429,0.99528 9.530607,1.27655 4.646094,0.27591 6.477402,0.52621 9.575753,1.3088 2.346751,0.59275 3.481244,0.65727 3.915833,0.22268 z m 39.15631,-0.35714 c -1.64363,-0.89216 -22.6683,-3.89992 -21.34922,-3.05419 0.5416,0.34725 6.0051,1.35135 12.9375,2.3777 2.98317,0.44166 5.72161,0.8506 6.08541,0.90875 0.3638,0.0581 1.19724,0.11718 1.85209,0.13117 l 1.19062,0.0254 -0.7164,-0.38886 z m -33.495361,-3.51676 c 0.599294,-0.55901 1.009525,-1.14599 0.911627,-1.30439 -0.0979,-0.15841 -0.825468,-0.36891 -1.616819,-0.46778 -1.349266,-0.16858 -1.478161,-0.13403 -2.070912,0.55508 -0.771345,0.89675 -0.939824,0.89632 -6.800678,-0.0173 -12.483905,-1.94596 -13.444139,-2.1903 -13.142398,-3.34416 0.146392,-0.5598 -0.322585,-0.75813 -1.762056,-0.74516 -0.864462,0.008 -1.331293,0.2054 -2.159767,0.91422 -0.68031,0.58205 -0.96315,0.99159 -0.79375,1.14929 0.304165,0.28317 4.821894,1.07159 11.640262,2.03142 2.619375,0.36873 6.786563,1.01249 9.260417,1.43058 2.473854,0.41809 4.710888,0.7724 4.971183,0.78736 0.260297,0.0149 0.963599,-0.43018 1.562891,-0.98919 z m 52.451901,-2.22475 c 2.1992,-2.83135 11.42987,-16.249517 12.28589,-17.859374 0.20134,-0.378646 0.21758,-0.595313 0.0446,-0.595313 -0.60393,0 -13.50502,17.983067 -13.50502,18.824907 0,0.72903 0.42466,0.59517 1.17451,-0.37022 z m -83.485694,-4.16578 c -1.177142,-0.68819 -15.096676,-2.60023 -14.486346,-1.9899 0.209537,0.20954 4.058468,0.96546 8.162105,1.60302 4.094597,0.63616 7.061029,0.81763 6.324241,0.38688 z m 21.598597,-7.160196 c 0.230529,-0.373004 -0.08314,-1.572461 -0.41121,-1.572461 -0.142748,0 -0.259543,0.193172 -0.259543,0.429271 0,0.351578 -0.07183,0.369657 -0.396875,0.0999 -0.334455,-0.277572 -0.396875,-0.227182 -0.396875,0.320381 0,0.357368 0.07937,0.729134 0.17639,0.826146 0.273767,0.273769 1.09583,0.207888 1.288113,-0.103233 z m 8.109003,-2.952705 c -0.189854,-0.189854 -0.313089,-0.205475 -0.313089,-0.03969 0,0.150373 0.07937,0.352779 0.17639,0.449791 0.09701,0.09701 0.237903,0.114875 0.313089,0.03969 0.07519,-0.07518 -0.0042,-0.27759 -0.17639,-0.449791 z m 7.755595,-4.27477 c 0.484595,-0.354345 0.484155,-0.367392 -0.01773,-0.526684 -0.283048,-0.08984 -0.809662,-0.640707 -1.170252,-1.224153 -1.073697,-1.737281 -1.383649,-1.311577 -0.638122,0.876427 0.448371,1.315894 0.916067,1.539846 1.826104,0.87441 z M 86.341972,87.599117 c -0.223845,-0.413049 -0.411755,-0.6673 -0.417581,-0.565007 -0.01791,0.314503 0.59763,1.542939 0.714549,1.42602 0.06051,-0.06051 -0.07313,-0.447966 -0.296968,-0.861013 z m -0.944261,-2.180563 c -0.750435,-1.470972 -0.94539,-1.383329 -0.224324,0.100846 0.316598,0.65165 0.621011,1.139439 0.676479,1.083974 0.05546,-0.05547 -0.148006,-0.588637 -0.452155,-1.18482 z"
         id="path3836"
         inkscape:connector-curvature="0" />
      <path
         style="fill:#48679a;stroke-width:0.26458335"
         d="m 112.76901,128.51454 c -1.60073,-0.12057 -5.46058,-0.71001 -8.57744,-1.30986 -4.947815,-0.95223 -5.830958,-1.05549 -6.958768,-0.81361 -1.871935,0.40146 -10.35035,-1.25387 -12.112755,-2.36489 -0.955038,-0.60206 -2.185329,-0.94022 -6.217709,-1.70898 -11.542081,-2.20047 -16.558901,-3.16616 -24.176674,-4.65378 l -8.037089,-1.5695 -3.73687,-1.8916 c -4.336767,-2.19526 -5.881801,-3.194 -6.124628,-3.95908 -0.267658,-0.84332 -0.02533,-0.86533 1.426613,-0.12957 0.737237,0.37358 1.56538,0.67924 1.840322,0.67924 0.460388,0 0.478899,-0.10977 0.234254,-1.38906 -0.146097,-0.76398 -0.605218,-1.859 -1.020262,-2.43337 -1.124589,-1.5563 -1.024017,-1.96117 0.474189,-1.90894 0.675846,0.0235 1.27136,-0.0768 1.323364,-0.2231 0.052,-0.14625 -0.481889,-0.53037 -1.186424,-0.85358 -0.704535,-0.32321 -1.608586,-0.91527 -2.009003,-1.31569 -0.629834,-0.62983 -0.70562,-0.86816 -0.561889,-1.76701 0.230918,-1.444076 0.28969,-1.488973 1.405553,-1.073675 0.544616,0.202695 6.526615,1.199215 13.293334,2.214495 63.600662,9.54265 78.111152,11.65722 79.782472,11.62647 l 1.84149,-0.0339 -2.64583,-0.34506 c -3.509,-0.45763 -35.104196,-5.23847 -39.303382,-5.94721 -1.811997,-0.30583 -4.247039,-0.67007 -5.411206,-0.80942 -2.302624,-0.27563 -10.205578,-1.47957 -11.197442,-1.70582 -0.33776,-0.077 -0.575885,-0.22499 -0.529167,-0.32876 0.239334,-0.53163 6.89496,-6.67097 7.23196,-6.67097 0.539072,0 0.496078,0.687231 -0.06941,1.109477 -0.254661,0.190151 -0.846182,0.792038 -1.31449,1.337523 l -0.851468,0.9918 0.926435,0.92643 c 0.509538,0.50954 1.045716,0.92644 1.191507,0.92644 0.517623,0 1.734039,-0.94195 4.215204,-3.264097 1.382448,-1.293847 2.960026,-2.65236 3.505729,-3.018919 1.004988,-0.675071 1.186299,-0.974125 0.752967,-1.241939 -0.347144,-0.214545 -1.961901,-3.419935 -2.80693,-5.571923 -1.079979,-2.75032 -2.758601,-6.217709 -3.010101,-6.217709 -0.121203,0 -0.161825,0.306247 -0.09027,0.680548 0.07155,0.374301 -0.0278,0.975575 -0.220782,1.336165 -0.297389,0.555675 -0.28248,0.912312 0.0978,2.339443 0.530103,1.98941 0.537705,2.080096 0.154511,1.84327 -0.348652,-0.215477 -0.754411,0.34344 -0.760118,1.047027 -0.0021,0.274768 -0.490826,1.027669 -1.085776,1.673112 -1.034741,1.122561 -1.061956,1.195377 -0.62656,1.676482 0.250338,0.276622 0.481909,0.943499 0.514598,1.481944 l 0.05944,0.978993 -0.627647,-1.235006 C 81.333846,94.7679 80.87296,94.279553 80.254883,94.021304 79.570099,93.735181 79.112587,93.189766 78.25657,91.639043 c -0.744101,-1.347978 -1.054735,-2.185916 -0.942012,-2.541077 0.116858,-0.368189 -0.239861,-1.205439 -1.168911,-2.743528 -0.735402,-1.217493 -1.517319,-2.3632 -1.737598,-2.546014 -0.772936,-0.64148 -0.478121,1.859574 0.525539,4.45838 0.981848,2.542331 1.089925,3.204678 0.655394,4.016605 -0.210963,0.394187 -0.152231,0.624126 0.266324,1.042681 0.644727,0.644726 1.591504,3.033739 1.591692,4.01633 9.7e-5,0.521383 -0.288058,0.916652 -1.107647,1.519386 -1.065295,0.783426 -1.13379,0.798147 -1.785938,0.383862 -0.372988,-0.236942 -1.2955,-1.069493 -2.050031,-1.850114 -1.341324,-1.3877 -2.200003,-1.795249 -2.200003,-1.044171 0,0.531363 1.236361,2.927819 1.715765,3.325688 0.570339,0.473339 0.519271,0.694469 -0.591285,2.560389 -0.729724,1.22606 -1.144601,1.66826 -1.568355,1.67166 -0.789035,0.006 -2.890007,-0.2842 -16.489459,-2.28023 -14.851808,-2.17985 -15.651689,-2.3573 -15.257387,-3.384836 0.08729,-0.227478 1.575989,-1.455873 3.308216,-2.729765 1.732224,-1.273892 7.404055,-5.453755 12.604065,-9.288587 5.20001,-3.834831 10.000383,-7.213862 10.667495,-7.508957 1.868599,-0.826569 3.645192,-0.822893 14.474488,0.02994 5.529792,0.435483 10.154761,0.692804 10.277711,0.571818 0.122949,-0.120984 0.03397,-1.13664 -0.197726,-2.257012 -0.403104,-1.949207 -0.39765,-2.130084 0.126479,-4.194998 0.301259,-1.186876 0.660958,-2.273898 0.799327,-2.415601 0.138369,-0.141706 1.130583,-0.220962 2.204919,-0.176125 1.438907,0.06005 2.120439,-0.02797 2.587823,-0.334209 0.485291,-0.317976 0.817729,-0.355076 1.413807,-0.157789 1.060103,0.350872 30.084858,1.835764 30.395018,1.554996 0.13583,-0.122944 0.19304,-0.277445 0.12715,-0.343332 -0.0659,-0.06589 -6.01107,-0.422539 -13.21153,-0.792559 -17.75975,-0.912643 -17.377705,-0.879983 -17.539678,-1.499367 -0.09675,-0.369983 -0.367556,-0.507513 -0.999315,-0.507513 -1.655501,0 -17.048843,-0.800151 -18.159485,-0.943933 -1.515724,-0.196229 -2.100088,-0.989846 -2.333461,-3.169058 -0.208222,-1.944357 0.07676,-3.375205 1.104598,-5.546039 0.731306,-1.54454 1.155404,-1.850303 1.155404,-0.83302 0,0.341249 0.224711,0.823812 0.499354,1.072362 0.445526,0.403196 1.964287,0.491111 14.089063,0.81558 7.474342,0.200017 17.10205,0.421701 21.39492,0.492628 10.66641,0.176228 4.91417,-0.158342 -16.933336,-0.984903 -16.778344,-0.634778 -18.034533,-0.750629 -18.63261,-1.71834 -0.09701,-0.156961 0.416925,-1.568092 1.142071,-3.135852 0.725147,-1.567757 1.40261,-3.207655 1.505474,-3.644217 0.102868,-0.436563 1.001723,-2.408849 1.997462,-4.382857 0.995738,-1.974009 1.887688,-3.998072 1.98211,-4.497917 0.280937,-1.487199 2.417159,-5.749904 3.108547,-6.202918 0.349309,-0.228878 0.955313,-1.155396 1.346677,-2.058932 1.008716,-2.328814 1.86482,-3.332711 3.467965,-4.066655 1.314826,-0.601947 1.979584,-0.670802 11.1408,-1.153954 5.3584,-0.282595 13.79067,-0.755261 18.73838,-1.050368 29.57021,-1.763718 46.87656,-2.675995 49.08021,-2.587185 3.84709,0.155043 5.02709,1.068995 5.02709,3.893683 0,0.886207 -1.46098,6.826021 -4.34716,17.674075 -2.39094,8.986602 -4.60811,17.380649 -4.92705,18.653435 -0.31893,1.272783 -0.91605,2.844239 -1.32692,3.492119 -0.86004,1.35614 -2.96206,2.691318 -4.63107,2.9416 -0.59369,0.08903 -7.59811,-0.15654 -15.56538,-0.545711 -12.92828,-0.631499 -14.53358,-0.664657 -14.92907,-0.308372 -0.24373,0.219567 -0.85987,0.438285 -1.36919,0.486043 -0.70677,0.06627 -0.94495,0.21931 -1.0059,0.646329 -0.0947,0.66367 0.72119,0.89571 3.14954,0.89571 1.35959,0 1.60116,-0.08063 1.98173,-0.661459 0.53587,-0.817842 1.44735,-0.854926 1.93217,-0.07861 0.2002,0.320567 0.6324,2.195801 0.96046,4.167188 0.47896,2.878177 0.54752,3.89591 0.34801,5.165812 -0.20619,1.312452 -0.17977,1.631701 0.15536,1.876748 0.22209,0.162401 2.34135,0.438547 4.70945,0.613658 13.38701,0.989915 14.22086,1.127443 15.57496,2.568816 0.55433,0.590053 0.58004,0.717878 0.24977,1.241864 -0.86866,1.378199 -1.05453,1.894092 -0.78015,2.165332 0.18769,0.185539 0.51663,-0.02085 1.04426,-0.655182 l 0.77027,-0.926042 0.007,1.406456 c 0.01,1.955985 0.35533,2.522175 1.41896,2.325762 0.6879,-0.127027 1.0458,0.01124 2.0078,0.775681 2.11059,1.677133 2.33481,2.503559 0.67925,2.503559 -0.70396,0 -1.03502,0.185029 -1.53856,0.859896 -0.35289,0.472943 -4.73449,7.167604 -9.73691,14.877014 -5.00241,7.70941 -9.53684,14.46127 -10.07651,15.00412 -1.20448,1.21161 -2.58905,1.93723 -4.76515,2.49733 -1.34303,0.34567 -3.43908,0.44213 -10.92239,0.50262 -5.09323,0.0412 -10.5701,-0.0238 -12.17083,-0.14435 z m 24.60625,-13.69167 c 1.25722,-0.64024 2.51354,-1.67837 2.51354,-2.07699 0,-0.43114 -0.68506,-0.49081 -0.93791,-0.0817 -0.0965,0.15609 -1.08001,0.69604 -2.18564,1.19989 -2.31324,1.05418 -2.28031,1.03115 -2.03713,1.42463 0.21706,0.35121 1.47871,0.12918 2.64714,-0.46585 z m -52.30813,-0.11412 c 0.46169,-0.46169 0.388737,-1.21326 -0.145521,-1.49916 -0.254661,-0.13628 -1.058333,-0.32522 -1.785937,-0.41987 -3.63523,-0.47288 -5.184326,-0.80592 -6.879167,-1.47895 -2.115577,-0.84011 -5.717906,-1.66005 -9.828176,-2.23703 -3.978918,-0.55854 -3.71665,-0.62602 -4.213815,1.08417 -0.267267,0.91936 -0.336823,1.57557 -0.183285,1.7291 0.572288,0.57229 11.419996,2.07181 15.113204,2.08916 0.966849,0.005 2.710405,0.23187 3.874572,0.50516 2.52907,0.59372 3.620503,0.65504 4.048125,0.22742 z m 39.15631,-0.35714 c -1.64363,-0.89216 -22.6683,-3.89992 -21.34922,-3.05419 0.5416,0.34725 6.0051,1.35135 12.9375,2.3777 2.98317,0.44166 5.72161,0.8506 6.08541,0.90875 0.3638,0.0581 1.19724,0.11718 1.85209,0.13117 l 1.19062,0.0254 -0.7164,-0.38886 z m -33.495361,-3.51676 c 0.599294,-0.55901 1.009525,-1.14599 0.911627,-1.30439 -0.0979,-0.15841 -0.825468,-0.36891 -1.616819,-0.46778 -1.349266,-0.16858 -1.478161,-0.13403 -2.070912,0.55508 -0.771345,0.89675 -0.939824,0.89632 -6.800678,-0.0173 -12.483905,-1.94596 -13.444139,-2.1903 -13.142398,-3.34416 0.146392,-0.5598 -0.322585,-0.75813 -1.762056,-0.74516 -0.864462,0.008 -1.331293,0.2054 -2.159767,0.91422 -0.68031,0.58205 -0.96315,0.99159 -0.79375,1.14929 0.304165,0.28317 4.821894,1.07159 11.640262,2.03142 2.619375,0.36873 6.786563,1.01249 9.260417,1.43058 2.473854,0.41809 4.710888,0.7724 4.971183,0.78736 0.260297,0.0149 0.963599,-0.43018 1.562891,-0.98919 z m 52.451901,-2.22475 c 2.1992,-2.83135 11.42987,-16.249517 12.28589,-17.859374 0.20134,-0.378646 0.21758,-0.595313 0.0446,-0.595313 -0.60393,0 -13.50502,17.983067 -13.50502,18.824907 0,0.72903 0.42466,0.59517 1.17451,-0.37022 z m -50.915161,-3.13538 c 0.72091,-0.60788 1.419283,-1.00285 1.588407,-0.89832 0.166005,0.10259 0.576226,-0.0713 0.911601,-0.38631 0.372081,-0.34956 1.576284,-0.81354 3.089267,-1.1903 3.997316,-0.99542 7.746476,-2.01587 7.873676,-2.14307 0.2959,-0.2959 -1.34288,-0.0321 -6.710279,1.08028 -3.180038,0.65904 -5.901913,1.15824 -6.048606,1.10934 -0.465571,-0.15518 1.725306,-2.32358 3.000638,-2.96984 1.242382,-0.629563 6.348457,-2.176002 11.327857,-3.430786 1.50175,-0.378434 2.9305,-0.79642 3.175,-0.928862 0.42782,-0.231744 1.5216,-0.587386 10.23413,-3.327612 2.18281,-0.686528 3.82668,-1.299065 3.65305,-1.361194 -0.37086,-0.132699 -8.25527,1.863688 -9.60618,2.432352 -1.51475,0.637635 -10.82399,3.039141 -12.93496,3.336837 -1.73363,0.244483 -4.368683,0.930767 -7.178812,1.869684 -0.52818,0.176474 -1.100964,0.618664 -1.322917,1.021297 -0.215289,0.390544 -1.700239,1.832344 -3.299886,3.204014 -1.599647,1.37167 -2.947832,2.69842 -2.995962,2.94835 -0.135763,0.70495 1.282898,0.57796 2.458926,-0.22012 0.964232,-0.65434 1.613916,-0.69535 0.980451,-0.0619 -0.172199,0.1722 -0.31309,0.46787 -0.31309,0.65705 0,0.63828 0.823921,0.35002 2.117689,-0.7409 z m -32.570533,-1.0304 c -1.177142,-0.68819 -15.096676,-2.60023 -14.486346,-1.9899 0.209537,0.20954 4.058468,0.96546 8.162105,1.60302 4.094597,0.63616 7.061029,0.81763 6.324241,0.38688 z M 101.20474,89.391228 c 7.04491,-2.341489 13.54151,-4.887397 13.24026,-5.188636 -0.2309,-0.230904 -4.14498,0.720622 -8.15829,1.983309 -4.2694,1.343266 -7.024702,1.77669 -7.87135,1.238213 -0.207023,-0.131667 -0.330729,-0.830532 -0.330729,-1.868403 0,-2.00121 -0.396013,-2.477164 -2.778125,-3.33893 -2.226549,-0.805487 -2.337422,-0.828162 -2.745299,-0.561414 -0.297833,0.194783 -0.142253,0.942938 0.855417,4.113506 0.670705,2.131483 1.344732,4.109487 1.497838,4.395565 0.449255,0.839441 2.01867,0.646528 6.290278,-0.77321 z m 5.03982,1.013092 c 1.35729,-0.291087 2.41507,-0.874607 2.12012,-1.169559 -0.0936,-0.09359 -0.82512,-0.237762 -1.6256,-0.320379 -1.61719,-0.166907 -4.87835,0.649039 -5.47698,1.370349 -0.2911,0.350758 -0.0858,0.399849 1.6719,0.399849 1.10207,0 2.59182,-0.126116 3.31056,-0.28026 z m -34.882847,13.7974 -0.661459,-0.18844 0.768896,-0.19746 c 0.549978,-0.14124 0.88628,-0.0801 1.181176,0.21481 0.373317,0.37332 0.363165,0.40979 -0.107436,0.38591 -0.285846,-0.0145 -0.817375,-0.11117 -1.181177,-0.21482 z m 12.7,-12.086702 c 0,-0.231905 0.238125,-0.483915 0.529167,-0.560025 0.291042,-0.07611 0.537536,-0.273323 0.547764,-0.438251 0.01024,-0.164928 0.117134,-0.06175 0.23757,0.229296 0.152955,0.369626 0.09222,0.62888 -0.201457,0.859896 -0.581289,0.457264 -1.113044,0.41383 -1.113044,-0.09092 z"
         id="path3834"
         inkscape:connector-curvature="0" />
      <path
         style="fill:#525557;stroke-width:0.26458335"
         d="m 112.76901,128.51454 c -1.60073,-0.12057 -5.46058,-0.71001 -8.57744,-1.30986 -4.947815,-0.95223 -5.830958,-1.05549 -6.958768,-0.81361 -1.871935,0.40146 -10.35035,-1.25387 -12.112755,-2.36489 -0.955038,-0.60206 -2.185329,-0.94022 -6.217709,-1.70898 -11.542081,-2.20047 -16.558901,-3.16616 -24.176674,-4.65378 l -8.037089,-1.5695 -3.73687,-1.8916 c -4.336767,-2.19526 -5.881801,-3.194 -6.124628,-3.95908 -0.267658,-0.84332 -0.02533,-0.86533 1.426613,-0.12957 0.737237,0.37358 1.56538,0.67924 1.840322,0.67924 0.460388,0 0.478899,-0.10977 0.234254,-1.38906 -0.146097,-0.76398 -0.605218,-1.859 -1.020262,-2.43337 -1.124589,-1.5563 -1.024017,-1.96117 0.474189,-1.90894 0.675846,0.0235 1.27136,-0.0768 1.323364,-0.2231 0.052,-0.14625 -0.481889,-0.53037 -1.186424,-0.85358 -0.704535,-0.32321 -1.608586,-0.91527 -2.009003,-1.31569 -0.629834,-0.62983 -0.70562,-0.86816 -0.561889,-1.76701 0.231057,-1.444949 0.290072,-1.48973 1.405553,-1.066558 0.544616,0.206608 19.325835,3.115208 41.736044,6.463558 22.410212,3.34835 42.695502,6.38407 45.078422,6.74604 2.38293,0.36197 5.1809,0.64291 6.21771,0.62431 l 1.88512,-0.0338 -1.85208,-0.24297 c -3.66633,-0.48098 -33.344865,-4.9346 -37.703129,-5.65781 -3.441923,-0.57116 -3.370932,-0.5358 -2.639346,-1.31454 0.683419,-0.72746 1.845596,-0.88973 1.845596,-0.25768 0,0.21829 0.119062,0.39688 0.264583,0.39688 0.145521,0 0.264583,-0.11747 0.264583,-0.26105 0,-0.59817 1.501024,-2.39101 2.116667,-2.52816 1.40593,-0.31322 2.582326,-0.61697 4.365626,-1.12723 1.01865,-0.29147 2.68871,-0.72644 3.71125,-0.96661 2.12583,-0.4993 2.64991,-0.75621 2.39245,-1.17279 -0.27111,-0.43865 -1.0259,-0.37101 -5.57453,0.49959 -2.280927,0.43656 -4.276581,0.79375 -4.434794,0.79375 -0.158213,0 -0.01114,-0.29433 0.326811,-0.65407 0.625006,-0.66529 0.901615,-0.76192 6.489233,-2.266811 3.39111,-0.913318 4.95738,-1.472422 8.73363,-3.117609 1.31099,-0.571156 5.20105,-1.885559 8.64455,-2.920892 6.62324,-1.991357 12.07527,-3.851775 12.48317,-4.25968 0.15039,-0.150387 0.0515,-0.204388 -0.25605,-0.139759 -5.25088,1.103567 -16.75317,4.119518 -18.14799,4.758481 -1.68747,0.773034 -11.91945,3.344627 -13.03484,3.276037 -0.59943,-0.03686 -1.23549,0.02297 -1.41346,0.132964 -0.17797,0.109992 -1.185152,0.438716 -2.238176,0.730496 -3.522795,0.976124 -4.78962,1.486344 -4.982051,2.006539 -0.102428,0.276886 -0.941599,1.150734 -1.864823,1.941884 -2.071712,1.77534 -4.634979,4.34338 -4.785234,4.79414 -0.06679,0.20038 -0.47734,0.31293 -1.018039,0.27909 -1.642193,-0.10277 -9.723989,-1.45841 -10.081198,-1.69102 -0.270025,-0.17583 -0.198897,-0.34687 0.311547,-0.74919 0.363802,-0.28673 0.856589,-0.52398 1.095082,-0.52722 0.248697,-0.003 0.417951,-0.20334 0.396875,-0.4689 -0.05718,-0.72051 1.908212,-0.77278 3.043031,-0.0809 0.488934,0.29809 1.103244,0.54242 1.365131,0.54296 0.639061,0.001 2.07558,-0.73815 2.566548,-1.32119 0.886273,-1.05246 5.898862,-5.556987 6.183763,-5.556987 0.168503,0 0.750655,-0.238125 1.293675,-0.529166 0.543023,-0.291042 1.108104,-0.529167 1.255736,-0.529167 0.147635,0 0.773145,-0.221261 1.390023,-0.491691 2.239156,-0.981615 2.619272,-1.095809 3.647586,-1.095809 0.600443,0 1.045885,-0.127204 1.045885,-0.29867 0,-0.421497 -2.326728,-0.08094 -4.630209,0.67772 -1.018646,0.335494 -2.351439,0.685453 -2.961762,0.777687 -0.978908,0.147936 -1.150395,0.09467 -1.455208,-0.452022 -0.710433,-1.274191 -2.044274,-4.056486 -2.557579,-5.334924 -0.903946,-2.251376 -3.1388,-6.851575 -3.599088,-7.408333 -0.416179,-0.503401 -0.429326,-0.466831 -0.269999,0.751107 0.130064,0.994228 0.06883,1.389285 -0.274053,1.768168 -0.31887,0.352349 -0.390935,0.718283 -0.259395,1.317183 0.133512,0.607878 0.05894,0.965428 -0.279307,1.339186 -0.342135,0.378056 -0.449482,0.90868 -0.415171,2.052207 0.03782,1.260316 -0.07587,1.722307 -0.621808,2.526792 -0.367448,0.541464 -0.668089,1.2256 -0.668089,1.520301 0,0.404325 -0.146092,0.515069 -0.595312,0.45127 -0.741405,-0.105296 -2.623704,-3.486808 -2.415133,-4.338732 0.229984,-0.939385 -4.120624,-7.784357 -4.947671,-7.784357 -0.615805,0 -0.203237,2.715837 0.848566,5.585923 l 1.092533,2.981227 -0.465658,1.338821 c -0.570402,1.63997 -1.881513,3.778898 -2.528674,4.125251 -0.263374,0.140952 -0.788082,0.256278 -1.166018,0.256278 -0.938721,0 -1.094526,0.605679 -0.431697,1.67816 0.305194,0.493813 0.554897,1.114239 0.554897,1.378725 0,0.264488 0.267891,0.767966 0.595313,1.118846 l 0.595312,0.637956 -0.885753,0.74287 c -0.634135,0.53183 -0.840473,0.88552 -0.726364,1.24505 0.08767,0.27621 0.0077,0.7096 -0.177638,0.96311 -0.396907,0.5428 0.06815,0.59457 -17.484396,-1.94658 -11.187708,-1.619684 -14.058276,-2.135354 -14.53377,-2.610847 -0.496895,-0.496896 0.06912,-1.098053 3.205624,-3.404664 1.732224,-1.273892 7.404055,-5.453755 12.604065,-9.288587 5.20001,-3.834831 10.000383,-7.213862 10.667495,-7.508957 1.868599,-0.826569 3.645192,-0.822893 14.474488,0.02994 5.529792,0.435483 10.154761,0.692804 10.277711,0.571818 0.122949,-0.120984 0.03397,-1.13664 -0.197726,-2.257012 -0.403104,-1.949207 -0.39765,-2.130084 0.126479,-4.194998 0.301259,-1.186876 0.660958,-2.273898 0.799327,-2.415601 0.138369,-0.141706 1.130583,-0.220962 2.204919,-0.176125 1.438907,0.06005 2.120439,-0.02797 2.587823,-0.334209 0.485291,-0.317976 0.817729,-0.355076 1.413807,-0.157789 1.060103,0.350872 30.084858,1.835764 30.395018,1.554996 0.13583,-0.122944 0.19304,-0.277445 0.12715,-0.343332 -0.0659,-0.06589 -6.01107,-0.422539 -13.21153,-0.792559 -17.75975,-0.912643 -17.377705,-0.879983 -17.539678,-1.499367 -0.09675,-0.369983 -0.367556,-0.507513 -0.999315,-0.507513 -1.655501,0 -17.048843,-0.800151 -18.159485,-0.943933 -1.515724,-0.196229 -2.100088,-0.989846 -2.333461,-3.169058 -0.208222,-1.944357 0.07676,-3.375205 1.104598,-5.546039 0.731306,-1.54454 1.155404,-1.850303 1.155404,-0.83302 0,0.341249 0.224711,0.823812 0.499354,1.072362 0.445526,0.403196 1.964287,0.491111 14.089063,0.81558 7.474342,0.200017 17.10205,0.421701 21.39492,0.492628 10.66641,0.176228 4.91417,-0.158342 -16.933336,-0.984903 -16.778344,-0.634778 -18.034533,-0.750629 -18.63261,-1.71834 -0.09701,-0.156961 0.416925,-1.568092 1.142071,-3.135852 0.725147,-1.567757 1.40261,-3.207655 1.505474,-3.644217 0.102868,-0.436563 1.001723,-2.408849 1.997462,-4.382857 0.995738,-1.974009 1.887688,-3.998072 1.98211,-4.497917 0.280937,-1.487199 2.417159,-5.749904 3.108547,-6.202918 0.349309,-0.228878 0.955313,-1.155396 1.346677,-2.058932 1.008716,-2.328814 1.86482,-3.332711 3.467965,-4.066655 1.314826,-0.601947 1.979584,-0.670802 11.1408,-1.153954 5.3584,-0.282595 13.79067,-0.755261 18.73838,-1.050368 29.57021,-1.763718 46.87656,-2.675995 49.08021,-2.587185 3.84709,0.155043 5.02709,1.068995 5.02709,3.893683 0,0.886207 -1.46098,6.826021 -4.34716,17.674075 -2.39094,8.986602 -4.60811,17.380649 -4.92705,18.653435 -0.31893,1.272783 -0.91605,2.844239 -1.32692,3.492119 -0.86004,1.35614 -2.96206,2.691318 -4.63107,2.9416 -0.59369,0.08903 -7.59811,-0.15654 -15.56538,-0.545711 -12.92828,-0.631499 -14.53358,-0.664657 -14.92907,-0.308372 -0.24373,0.219567 -0.85987,0.438285 -1.36919,0.486043 -0.70677,0.06627 -0.94495,0.21931 -1.0059,0.646329 -0.0947,0.66367 0.72119,0.89571 3.14954,0.89571 1.35959,0 1.60116,-0.08063 1.98173,-0.661459 0.53587,-0.817842 1.44735,-0.854926 1.93217,-0.07861 0.2002,0.320567 0.6324,2.195801 0.96046,4.167188 0.47896,2.878177 0.54752,3.89591 0.34801,5.165812 -0.2163,1.376786 -0.18885,1.625058 0.21209,1.918229 0.25329,0.185216 0.74746,0.336756 1.09814,0.336756 1.44909,0 14.5935,1.079075 16.02715,1.315728 1.52061,0.251011 3.21488,1.21897 3.51848,2.010164 0.0759,0.197721 -0.0957,0.69114 -0.3812,1.096489 -1.26528,1.79618 -0.82403,2.689151 0.52878,1.070108 l 0.72048,-0.86228 0.007,1.406456 c 0.01,1.955985 0.35533,2.522175 1.41896,2.325762 0.6879,-0.127027 1.0458,0.01124 2.0078,0.775681 2.11059,1.677133 2.33481,2.503559 0.67925,2.503559 -0.70396,0 -1.03502,0.185029 -1.53856,0.859896 -0.35289,0.472943 -4.73449,7.167604 -9.73691,14.877014 -5.00241,7.70941 -9.53684,14.46127 -10.07651,15.00412 -1.20448,1.21161 -2.58905,1.93723 -4.76515,2.49733 -1.34303,0.34567 -3.43908,0.44213 -10.92239,0.50262 -5.09323,0.0412 -10.5701,-0.0238 -12.17083,-0.14435 z M 85.448712,115.03263 c 0.85629,-0.67356 1.029441,-1.37951 0.560197,-2.28397 -0.520893,-1.00402 -0.102036,-1.22554 1.957523,-1.03523 1.639599,0.15149 1.666473,0.14299 2.753516,-0.87099 0.603766,-0.56319 1.017656,-1.15358 0.919758,-1.31198 -0.0979,-0.15841 -0.832641,-0.3698 -1.63276,-0.46977 -1.357468,-0.16961 -1.491181,-0.13546 -1.999406,0.51065 -0.609909,0.77537 -1.460926,0.87581 -3.602075,0.42513 -0.698386,-0.14699 -4.415425,-0.74188 -8.260083,-1.32195 -7.198058,-1.08604 -8.393324,-1.43601 -8.145182,-2.38491 0.153747,-0.58792 -0.27917,-0.78836 -1.702726,-0.78836 -0.785593,0 -1.316443,0.21234 -2.095027,0.83803 -1.136578,0.91338 -1.295503,1.37627 -0.579797,1.68876 0.375822,0.1641 0.313536,0.23191 -0.330729,0.36007 -0.709417,0.14112 -0.834713,0.31963 -1.179288,1.68011 -0.480568,1.89742 -0.394282,1.99845 2.502204,2.92975 2.641548,0.84934 4.241888,1.13271 10.715626,1.89745 6.786121,0.80164 9.231408,0.8348 10.118249,0.13721 z m 51.926548,-0.20976 c 1.25722,-0.64024 2.51354,-1.67837 2.51354,-2.07699 0,-0.43114 -0.68506,-0.49081 -0.93791,-0.0817 -0.0965,0.15609 -1.08001,0.69604 -2.18564,1.19989 -2.31324,1.05418 -2.28031,1.03115 -2.03713,1.42463 0.21706,0.35121 1.47871,0.12918 2.64714,-0.46585 z m -13.13208,-0.46091 c -1.16824,-0.63475 -15.20421,-2.87222 -19.80855,-3.15768 l -2.24896,-0.13944 1.19046,0.39551 c 1.9671,0.65353 18.11104,3.24246 20.37309,3.26714 1.17876,0.0129 1.18368,0.009 0.49396,-0.36553 z m 18.9368,-5.75186 c 1.39043,-1.7901 6.42125,-8.977251 9.45821,-13.512212 2.83489,-4.233227 3.56072,-5.571913 2.71103,-5.000141 -0.90037,0.605875 -13.34375,18.214353 -13.34375,18.882573 0,0.72903 0.42466,0.59517 1.17451,-0.37022 z m -83.485694,-4.16578 c -1.177142,-0.68819 -15.096676,-2.60023 -14.486346,-1.9899 0.209537,0.20954 4.058468,0.96546 8.162105,1.60302 4.094597,0.63616 7.061029,0.81763 6.324241,0.38688 z m 18.546594,-0.66287 c 0,-0.21828 -0.193172,-0.39687 -0.429271,-0.39687 -0.351578,0 -0.369657,0.0718 -0.0999,0.39687 0.181158,0.21829 0.37433,0.39688 0.429271,0.39688 0.05494,0 0.0999,-0.17859 0.0999,-0.39688 z M 99.275256,92.019519 c 0.696952,-0.625983 0.963144,-0.699339 2.182814,-0.601522 0.76398,0.06127 1.38906,0.211489 1.38906,0.333817 0,0.782169 13.97032,-3.259244 17.52865,-5.070782 1.28515,-0.654272 1.3177,-1.288119 0.0661,-1.288119 -0.99727,0 -1.20822,-0.344956 -0.46522,-0.760759 1.07186,-0.599842 -0.0723,-0.560435 -2.58766,0.08912 -1.48423,0.383286 -2.74825,0.647234 -2.80893,0.586555 -0.0607,-0.06068 0.57856,-0.383612 1.42053,-0.71763 2.06075,-0.817509 3.59295,-1.589024 3.44654,-1.735439 -0.066,-0.06599 -1.7538,0.004 -3.75068,0.155602 -3.38628,0.257032 -3.85638,0.362508 -6.98326,1.566838 -4.03508,1.554126 -6.74113,2.403208 -7.65908,2.403208 -1.01058,0 -1.646612,-0.715989 -1.646612,-1.853607 0,-1.573176 -0.471382,-2.556595 -1.44747,-3.01978 -0.484804,-0.230052 -0.996238,-0.41828 -1.136523,-0.41828 -0.140285,0 -0.572886,-0.249999 -0.961337,-0.555556 -0.462447,-0.363762 -0.91671,-0.502742 -1.315818,-0.402571 -0.347236,0.08715 -0.827206,-0.01172 -1.115343,-0.22978 -0.543809,-0.411525 -2.225593,-0.544846 -2.225593,-0.17643 0,0.122741 0.223782,0.873599 0.497295,1.668574 0.633875,1.842394 0.998514,4.331764 0.598276,4.084402 -0.165876,-0.102515 -0.357283,0.105839 -0.455039,0.495332 -0.0928,0.369755 -0.24512,0.67624 -0.338486,0.681082 -0.09336,0.0048 -0.43075,0.226703 -0.749748,0.493027 -0.398864,0.333005 -0.53296,0.664075 -0.429392,1.060128 0.181861,0.69543 1.50826,1.435721 2.186644,1.220409 0.561792,-0.178306 1.600867,0.951746 1.600867,1.741032 0,0.346848 0.317463,0.564888 1.124479,0.772322 0.618463,0.158969 1.243542,0.327945 1.389062,0.375504 0.619017,0.202303 1.90898,-0.234878 2.645834,-0.896702 z m 0.926044,0.781728 c 0,-0.145521 -0.17157,-0.264584 -0.381262,-0.264584 -0.209693,0 -0.454845,0.119063 -0.544782,0.264584 -0.08994,0.14552 0.08163,0.264583 0.381259,0.264583 0.29963,0 0.544785,-0.119063 0.544785,-0.264583 z M 72.669789,91.017616 c -0.631026,-1.949016 -2.516312,-5.298413 -2.814495,-5.000231 -0.06918,0.06918 0.568894,1.537592 1.417929,3.263149 1.509181,3.067225 2.041652,3.729524 1.396566,1.737082 z m 18.973539,0.317011 c 0.08617,-0.224557 0.08531,-0.479648 -0.0019,-0.56687 -0.188442,-0.188444 -0.965121,0.409458 -0.965121,0.742968 0,0.39928 0.802304,0.25318 0.967031,-0.176098 z M 87.264177,85.04996 c -0.33959,-0.33959 -0.683961,-0.07713 -0.432551,0.329666 0.09739,0.157575 0.298278,0.21159 0.446424,0.120031 0.18071,-0.111686 0.176146,-0.259678 -0.01386,-0.449697 z"
         id="path3832"
         inkscape:connector-curvature="0" />
      <path
         style="fill:#334c5b;stroke-width:0.26458335"
         d="m 112.10755,128.25665 c -1.23693,-0.11732 -4.78546,-0.7056 -7.88562,-1.30729 -4.764045,-0.92462 -5.843223,-1.05644 -6.970919,-0.85147 -0.733841,0.13338 -1.531094,0.20158 -1.771671,0.15155 -0.240581,-0.05 -2.398663,-0.47396 -4.79574,-0.94208 -3.230391,-0.63086 -4.668346,-1.03777 -5.556251,-1.5723 -0.961308,-0.57872 -2.373818,-0.93771 -7.151053,-1.81744 -3.274218,-0.60294 -6.6675,-1.26307 -7.540625,-1.46694 -0.873125,-0.20387 -3.01625,-0.63541 -4.7625,-0.95899 -1.74625,-0.32357 -6.671538,-1.26792 -10.945083,-2.09855 l -7.770083,-1.51025 -3.545067,-1.81739 c -1.949789,-0.99956 -3.870595,-2.08548 -4.26846,-2.41316 l -0.723392,-0.59577 1.190625,0.50137 c 0.654844,0.27576 2.003372,0.87038 2.996727,1.32137 0.993357,0.45099 2.481638,0.99144 3.307292,1.20099 1.47893,0.37536 14.562043,2.79803 15.110177,2.79803 0.439087,0 0.331161,-0.66782 -0.181382,-1.12236 -0.273746,-0.24276 -2.769611,-0.85876 -6.105581,-1.5069 -9.490078,-1.8438 -10.955619,-2.50458 -13.094481,-5.90405 -0.251958,-0.40046 -0.922526,-1.03544 -1.490152,-1.41108 -0.567627,-0.37564 -1.101098,-0.86292 -1.185492,-1.08284 -0.130567,-0.34026 0.05382,-0.36999 1.236913,-0.19945 2.337806,0.33699 2.448688,0.31825 2.448688,-0.4139 0,-0.56709 -0.220967,-0.73873 -1.564371,-1.21514 -0.860403,-0.30512 -2.010635,-0.96045 -2.556068,-1.45629 -0.81002,-0.73637 -0.966137,-1.03483 -0.85218,-1.62914 0.07673,-0.40018 0.274464,-0.72198 0.4394,-0.7151 0.164937,0.007 2.621604,0.42437 5.45926,0.92778 2.837657,0.50341 4.414087,0.84893 3.503176,0.76783 -5.40503,-0.48125 -6.8311,-0.57723 -7.008905,-0.47172 -0.439574,0.26085 -0.151553,0.56554 0.661458,0.69974 0.472943,0.0781 2.059451,0.38038 3.525571,0.67181 3.324431,0.66083 10.423086,1.77199 15.411514,2.41237 2.084327,0.26757 3.860814,0.55762 3.947745,0.64455 0.08693,0.0869 -0.109506,0.44287 -0.436528,0.79097 -0.327022,0.3481 -0.636323,0.91317 -0.687335,1.25572 -0.05101,0.34256 -0.277825,1.27767 -0.504031,2.07803 -0.226208,0.80037 -0.354272,1.63381 -0.284586,1.85209 0.275633,0.86338 5.885355,2.12094 13.489631,3.02402 2.910417,0.34564 5.734328,0.81866 6.275356,1.05117 2.977219,1.27942 5.814881,-0.60607 4.594331,-3.05272 l -0.416144,-0.83418 1.72933,0.16149 c 0.951129,0.0888 1.843537,0.23207 1.983123,0.31834 0.139589,0.0863 0.253797,0.88802 0.253797,1.78166 0,1.88119 0.303286,1.74816 0.759452,-0.33312 0.253709,-1.15756 0.572177,-1.71253 1.557025,-2.71328 1.2304,-1.25028 1.234853,-1.26129 0.717574,-1.77508 -0.338286,-0.336 -1.195813,-0.62114 -2.449468,-0.81448 -1.915422,-0.2954 -1.932728,-0.29269 -2.466599,0.38601 -0.35582,0.45235 -0.795409,0.6835 -1.299853,0.6835 -1.356146,0 -17.568366,-2.65273 -17.83368,-2.91805 -0.771694,-0.77169 0.729872,-0.67714 8.712423,0.5486 9.497346,1.45834 9.780802,1.48544 9.561611,0.91424 -0.11756,-0.30636 0.05968,-0.39687 0.77714,-0.39687 0.511185,0 10.002684,1.36322 21.092221,3.02939 11.08953,1.66616 20.93798,3.10843 21.88546,3.20505 2.335,0.23811 5.6865,-0.63274 6.76418,-1.7576 0.40715,-0.42497 0.62274,-0.77268 0.4791,-0.77268 -0.14364,0 -0.37428,0.11292 -0.51252,0.25094 -0.46835,0.46757 -3.39608,1.07198 -5.19265,1.07198 -0.98307,0 -3.78579,-0.30112 -6.22826,-0.66915 -16.88926,-2.54489 -29.02526,-4.4086 -30.446104,-4.67556 l -1.663576,-0.31257 0.175062,-0.79705 c 0.268446,-1.22222 1.225981,-2.53649 1.961462,-2.6922 1.22876,-0.26015 2.505528,-0.58768 4.365626,-1.11991 1.01865,-0.29147 2.68871,-0.72644 3.71125,-0.96661 2.12583,-0.4993 2.64991,-0.75621 2.39245,-1.17279 -0.27111,-0.43865 -1.0259,-0.37101 -5.57453,0.49959 -2.280927,0.43656 -4.276581,0.79375 -4.434794,0.79375 -0.158213,0 -0.01114,-0.29433 0.326811,-0.65407 0.625006,-0.66529 0.901615,-0.76192 6.489233,-2.266811 3.39111,-0.913318 4.95738,-1.472422 8.73363,-3.117609 1.31099,-0.571156 5.20105,-1.885559 8.64455,-2.920892 6.62324,-1.991357 12.07527,-3.851775 12.48317,-4.25968 0.15039,-0.150387 0.0515,-0.204388 -0.25605,-0.139759 -5.25088,1.103567 -16.75317,4.119518 -18.14799,4.758481 -1.68747,0.773033 -11.91945,3.344627 -13.03484,3.276037 -0.59943,-0.03686 -1.23657,0.02363 -1.41586,0.134448 -0.309133,0.19105 -3.633011,1.198472 -6.068593,1.839304 -0.774256,0.203713 -1.12448,0.438081 -1.12448,0.752488 0,0.251143 -0.82155,1.163713 -1.825667,2.027933 -1.004118,0.86421 -2.541702,2.29853 -3.416853,3.18738 -1.844607,1.87347 -1.741334,1.85482 -6.174418,1.11484 -1.651569,-0.27569 -3.598167,-0.58012 -4.325771,-0.67653 -0.727604,-0.0964 -1.551085,-0.24235 -1.829959,-0.32431 -0.475416,-0.13973 -0.467164,-0.17968 0.132292,-0.6405 0.351634,-0.27032 0.834464,-0.49413 1.072957,-0.49737 0.248697,-0.003 0.417951,-0.20334 0.396875,-0.4689 -0.05718,-0.72051 1.908212,-0.77278 3.043031,-0.0809 1.570101,0.95723 2.444009,0.63563 5.030851,-1.85136 3.808225,-3.661236 4.79442,-4.40558 6.573746,-4.96162 0.945885,-0.29559 2.483474,-0.857425 3.416863,-1.248519 1.391608,-0.583091 1.996514,-0.692017 3.360672,-0.605152 1.404739,0.08944 1.615674,0.04819 1.355622,-0.265158 -0.240221,-0.289451 -0.208309,-0.443962 0.145062,-0.702355 0.24917,-0.182194 0.45303,-0.407437 0.45303,-0.500533 0,-0.264504 -0.923313,-0.198456 -1.208195,0.08643 -0.219702,0.219702 -1.19125,0.477306 -4.60442,1.220856 -0.359283,0.07827 -0.781653,0.248881 -0.938604,0.379138 -0.156951,0.130257 -0.964657,0.343355 -1.794904,0.473551 -1.151874,0.180631 -1.577449,0.154892 -1.796153,-0.10863 -0.157636,-0.189942 -0.209286,-0.470466 -0.114774,-0.62339 0.09451,-0.152924 -0.01982,-0.351589 -0.254079,-0.441481 -0.487244,-0.186973 -1.724287,-2.486126 -1.724287,-3.204739 0,-0.263501 -0.156578,-0.713944 -0.347954,-1.000983 -0.350893,-0.526303 -1.123511,-2.318469 -2.050018,-4.755226 -0.58388,-1.535634 -0.425466,-1.332267 1.339638,1.719791 0.715354,1.236928 1.395844,2.408391 1.512195,2.603252 0.176212,0.295111 0.340307,0.295629 0.982313,0.0031 0.614124,-0.279816 0.793332,-0.283472 0.881822,-0.01799 0.168394,0.505182 1.612548,1.163587 2.166554,0.987751 0.561792,-0.178306 1.600867,0.951746 1.600867,1.741032 0,0.342614 0.32731,0.575273 1.124479,0.799304 1.842812,0.51789 3.076916,0.363566 4.009514,-0.501386 0.732206,-0.679098 0.966536,-0.747897 2.208196,-0.648316 0.76398,0.06127 1.38906,0.218977 1.38906,0.350451 0,0.131477 -0.16401,0.239048 -0.36448,0.239048 -0.20046,0 -0.51269,0.178594 -0.69385,0.396875 -0.49098,0.591588 0.19256,0.519465 1.26316,-0.133281 0.47646,-0.290496 1.171,-0.528177 1.54342,-0.528177 1.04058,0 4.50005,-0.927804 10.00368,-2.682915 5.71754,-1.823341 8.30946,-2.903876 7.36422,-3.070069 -0.32742,-0.05757 -0.59531,-0.21545 -0.59531,-0.35085 0,-0.135401 -0.41672,-0.246182 -0.92605,-0.246182 -0.99727,0 -1.20822,-0.344956 -0.46522,-0.760759 0.8987,-0.502938 0.091,-0.598564 -1.53569,-0.181819 -0.90744,0.232476 -1.69594,0.376629 -1.75222,0.320344 -0.10151,-0.10151 1.78033,-0.881745 3.68699,-1.528672 0.5457,-0.185156 0.99219,-0.431792 0.99219,-0.548079 0,-0.116287 0.23812,-0.211432 0.52916,-0.211432 0.29104,0 0.52917,-0.116795 0.52917,-0.259543 0,-0.316753 -0.69908,-0.478184 -2.77813,-0.641516 -0.87312,-0.06859 -2.30187,-0.194712 -3.175,-0.28026 -0.87312,-0.08555 -2.18281,-0.201322 -2.91041,-0.257273 -0.72761,-0.05595 -2.21589,-0.227174 -3.3073,-0.380503 -1.0914,-0.153328 -3.23453,-0.346027 -4.7625,-0.428217 -1.52796,-0.08219 -3.79015,-0.265393 -5.02708,-0.407117 -1.236926,-0.141724 -2.725207,-0.31155 -3.307291,-0.377391 -0.582083,-0.06584 -1.871226,-0.217766 -2.86476,-0.337611 -0.993534,-0.119846 -1.863765,-0.125127 -1.933842,-0.01172 -0.176131,0.284982 -2.148126,0.260374 -2.326992,-0.02904 -0.07995,-0.129363 -0.322493,-1.077235 -0.538981,-2.10638 -0.36509,-1.73559 -0.357031,-2.017564 0.111237,-3.89142 0.277667,-1.111133 0.563006,-2.0784 0.634087,-2.14948 0.07108,-0.07108 1.180743,-0.170349 2.465911,-0.220596 1.285172,-0.05025 2.693861,-0.10568 3.130423,-0.123188 0.436563,-0.01752 7.639848,0.341982 16.007288,0.798857 11.02913,0.602207 15.32271,0.924613 15.61042,1.172188 0.21828,0.187828 1.34938,0.399744 2.51354,0.470924 l 2.11667,0.129421 0.86645,-0.917101 c 0.9083,-0.961395 1.8888,-1.049388 1.51194,-0.135684 -1.38227,3.351303 -1.48874,4.315392 -0.8544,7.736832 0.25381,1.368976 0.32193,2.34731 0.17409,2.500313 -0.13358,0.138245 -0.24287,0.335846 -0.24287,0.439116 0,0.337857 3.44312,0.735973 11.24479,1.300194 9.39407,0.679386 10.10502,0.802137 11.20219,1.934133 l 0.83558,0.8621 -1.65326,2.443909 c -0.90929,1.344152 -4.20614,6.035431 -7.32632,10.42507 -6.42271,9.035803 -6.95051,9.883273 -6.37974,10.243713 0.23201,0.1465 0.56485,0.14409 0.84555,-0.006 0.60401,-0.32326 13.03564,-17.858232 13.77285,-19.426793 0.13679,-0.291042 0.54572,-0.748742 0.90874,-1.017109 l 0.66003,-0.487944 -0.19018,1.017111 c -0.32107,1.717109 -0.5525,2.342581 -0.84402,2.280983 -0.33318,-0.0704 -2.62152,3.003765 -6.54328,8.790292 -1.578,2.32834 -3.03291,4.35554 -3.23312,4.5049 -0.34866,0.2601 -0.21986,1.18365 0.16507,1.18365 0.0985,0 1.75076,-2.29196 3.67167,-5.09323 1.92092,-2.801283 4.05064,-5.801616 4.73271,-6.667412 1.17135,-1.486847 1.25455,-1.541889 1.49983,-0.992188 0.14283,0.320093 0.34823,0.581988 0.45643,0.581988 0.22451,0 1.49227,-1.411329 2.14464,-2.387504 l 0.43787,-0.655204 1.07088,1.033574 1.07088,1.033571 -1.02451,0.950804 c -0.58107,0.539271 -5.05526,7.192041 -10.33719,15.370601 -5.12199,7.93088 -9.74521,14.87636 -10.27383,15.43439 -1.16761,1.23257 -2.39686,1.89198 -4.59083,2.46267 -1.36662,0.35548 -3.42524,0.44488 -11.58385,0.50302 -5.45703,0.0389 -10.9339,-0.0253 -12.17083,-0.14259 z m 1.5875,-2.35163 c 0,-0.12855 -0.23813,-0.29599 -0.52917,-0.3721 -0.52009,-0.13601 -0.69965,0.0826 -0.35278,0.42944 0.25669,0.25668 0.88195,0.21603 0.88195,-0.0573 z m -2.38125,-0.42773 c -0.18116,-0.21828 -0.55293,-0.39688 -0.82615,-0.39688 -0.27322,0 -0.49677,0.1786 -0.49677,0.39688 0,0.26804 0.26818,0.39687 0.82615,0.39687 0.70435,0 0.77759,-0.0585 0.49677,-0.39687 z m -2.63433,-0.37537 c -0.28096,-0.52499 -1.65336,-0.97641 -2.11016,-0.6941 -0.14272,0.0882 -0.19509,0.32819 -0.11638,0.5333 0.14159,0.36896 0.72128,0.56257 1.89361,0.63243 0.51741,0.0308 0.56543,-0.0372 0.33293,-0.47163 z m -3.18651,-0.27999 c 0,-0.50738 -1.22013,-1.02242 -3.09338,-1.30578 -3.987159,-0.60312 -5.604629,-0.13182 -2.13214,0.62126 1.05503,0.2288 2.39448,0.52262 2.97657,0.65293 1.45919,0.32665 2.24895,0.33775 2.24895,0.0316 z m 31.20045,-9.39161 c 1.41913,-0.5007 3.40307,-1.92465 3.61592,-2.59528 0.22973,-0.72382 -0.41209,-1.06377 -1.08043,-0.57227 -0.2919,0.21467 -0.82838,0.51701 -1.19218,0.67188 -1.63484,0.69596 -3.52812,1.68876 -3.86731,2.02795 -0.87133,0.87132 0.60477,1.14486 2.524,0.46772 z m -7.65253,-0.12929 c 0,-0.80892 -15.67949,-3.5728 -27.02044,-4.763 -5.874425,-0.6165 -6.950181,-0.66042 -6.255057,-0.25541 1.033725,0.6023 11.434417,2.46692 23.353627,4.18679 7.31719,1.05584 9.92187,1.27415 9.92187,0.83162 z m 15.08125,-4.36021 c 0,-0.0642 -0.11906,-0.19026 -0.26458,-0.2802 -0.14552,-0.0899 -0.26458,-0.0374 -0.26458,0.11668 0,0.15411 0.11906,0.2802 0.26458,0.2802 0.14552,0 0.26458,-0.0525 0.26458,-0.11668 z m 3.03245,-12.535926 c 4.34886,-6.089063 5.22379,-7.45263 4.29997,-6.701401 -1.23884,1.00739 -9.7845,12.939917 -9.54484,13.327697 0.23033,0.37269 0.39226,0.16811 5.24487,-6.626296 z m -68.9137,5.376556 c 0,-0.21828 -0.193172,-0.39687 -0.429271,-0.39687 -0.351578,0 -0.369657,0.0718 -0.0999,0.39687 0.181158,0.21829 0.37433,0.39688 0.429271,0.39688 0.05494,0 0.0999,-0.17859 0.0999,-0.39688 z m 17.197917,-6.636626 c 0,-0.23041 -0.141388,-0.371795 -0.314192,-0.314193 -0.490596,0.163531 -0.571966,0.733115 -0.10473,0.733115 0.230407,0 0.418922,-0.188515 0.418922,-0.418922 z m -3.70124,-5.936546 c 0.458814,-0.857298 0.0236,-1.170033 -0.692298,-0.497475 -0.348449,0.32735 -0.633545,0.693494 -0.633545,0.813646 0,0.448731 1.050557,0.198205 1.325843,-0.316171 z M 123.8204,82.308946 c -0.17913,-0.07248 -0.53632,-0.07689 -0.79375,-0.0098 -0.25744,0.06708 -0.11087,0.126381 0.32569,0.131773 0.43656,0.0054 0.64719,-0.04949 0.46806,-0.121971 z m -14.17368,-6.079638 c -0.18858,-0.188585 -9.780525,-0.89203 -9.952541,-0.729891 -0.259533,0.244631 0.284681,0.339657 3.286141,0.573802 3.95014,0.308153 6.88723,0.37692 6.6664,0.156089 z M 91.381274,106.91178 c -0.309652,-0.30966 0.674614,-1.14595 1.348714,-1.14595 0.48288,0 0.607695,0.10701 0.488159,0.41852 -0.08833,0.23018 -0.1606,0.52783 -0.1606,0.66145 0,0.27804 -1.408761,0.33349 -1.676273,0.066 z m -24.385186,-1.73476 c -2.484279,-0.282 -9.599418,-1.63857 -9.099339,-1.73488 0.430728,-0.0829 11.109688,1.46772 11.2799,1.63793 0.25845,0.25845 -0.471816,0.29092 -2.180561,0.0969 z m 2.148845,-1.71617 c -0.103571,-0.10356 0.08494,-0.39857 0.418923,-0.65557 l 0.607232,-0.46727 -0.677035,-0.006 c -0.372369,-0.003 -0.90815,0.16892 -1.190625,0.38258 -0.607695,0.45963 -2.038405,0.50761 -4.069538,0.13647 -0.809125,-0.14785 -6.055042,-0.93023 -11.657595,-1.73862 -12.03089,-1.735936 -12.012714,-1.732533 -12.11588,-2.26823 -0.05355,-0.278069 1.876936,-1.851781 5.819437,-4.743944 9.539251,-6.997864 15.594423,-11.27827 16.821357,-11.891032 1.594461,-0.796311 5.069946,-1.044672 5.604555,-0.400505 0.297249,0.358164 0.30978,0.55671 0.06034,0.956123 -0.173146,0.277251 -0.314812,0.788873 -0.314812,1.136941 0,0.597101 1.852941,4.226081 2.946778,5.771258 0.275807,0.389612 0.735029,1.22305 1.020493,1.852083 0.285464,0.629034 0.521639,0.982533 0.524836,0.785553 0.01259,-0.776975 -1.434629,-4.912862 -2.372099,-6.778955 -0.930984,-1.853176 -0.963472,-1.997882 -0.53549,-2.3852 0.250592,-0.226783 0.641401,-0.341043 0.868466,-0.253911 0.723548,0.277652 2.518683,3.207351 3.383566,5.522058 0.574646,1.537936 0.57681,1.591332 0.117959,2.910417 -0.571984,1.644317 -1.882563,3.783433 -2.530441,4.130167 -0.263374,0.140952 -0.788082,0.256278 -1.166018,0.256278 -0.938721,0 -1.094526,0.605679 -0.431697,1.67816 0.305194,0.493813 0.554897,1.114239 0.554897,1.378725 0,0.264488 0.267891,0.767966 0.595313,1.118846 l 0.595312,0.637958 -0.894958,0.75055 c -0.581261,0.48747 -0.839211,0.89583 -0.73591,1.16503 0.334727,0.87228 -0.616902,1.65039 -1.24737,1.01992 z m -12.79329,-0.25962 c 0.257432,-0.0671 0.614619,-0.0627 0.79375,0.01 0.179131,0.0725 -0.03149,0.12736 -0.468056,0.12197 -0.436562,-0.005 -0.583126,-0.0647 -0.325694,-0.13177 z m -1.724827,-0.25646 c 0.181901,-0.0734 0.479557,-0.0734 0.661458,0 0.181902,0.0734 0.03307,0.13345 -0.330729,0.13345 -0.363802,0 -0.51263,-0.0601 -0.330729,-0.13345 z m -1.852083,-0.26459 c 0.181901,-0.0734 0.479557,-0.0734 0.661458,0 0.181901,0.0734 0.03307,0.13346 -0.330729,0.13346 -0.363802,0 -0.51263,-0.0601 -0.330729,-0.13346 z m -1.835547,-0.27009 c 0.190994,-0.0764 0.419198,-0.067 0.507119,0.0209 0.08792,0.0879 -0.06835,0.15045 -0.347266,0.13896 -0.308226,-0.0127 -0.370919,-0.0754 -0.159853,-0.15985 z m -1.86862,-0.25907 c 0.181901,-0.0734 0.479557,-0.0734 0.661458,0 0.181901,0.0734 0.03307,0.13345 -0.330729,0.13345 -0.363802,0 -0.51263,-0.0601 -0.330729,-0.13345 z m 30.556561,-8.886753 c -0.704792,-0.876141 -1.87148,-3.616587 -1.745226,-4.099382 0.0894,-0.341853 -0.484034,-1.768711 -1.583378,-3.939898 -0.947944,-1.872173 -1.801577,-3.719382 -1.896959,-4.104912 -0.164711,-0.665731 -0.105582,-0.71551 1.176456,-0.99046 2.390275,-0.512622 4.165122,-0.644922 4.362721,-0.325202 0.100898,0.163259 0.407524,0.296834 0.681389,0.296834 0.698333,0 0.892585,0.435631 0.82776,1.856345 -0.03091,0.677458 0.05165,1.711767 0.183472,2.298465 0.152702,0.679624 0.143299,1.238943 -0.0259,1.541309 -0.181481,0.324292 -0.173012,0.622832 0.02675,0.9427 0.160787,0.25746 0.367604,1.220536 0.459589,2.140167 0.1514,1.513639 0.102143,1.76717 -0.519911,2.675993 -0.377939,0.552164 -0.68716,1.236773 -0.68716,1.521354 0,0.590836 -0.834933,0.714584 -1.259587,0.186687 z m 9.485869,-6.062099 c -0.473165,-0.175035 -0.577329,-0.362749 -0.454856,-0.819703 0.08736,-0.325972 0.165312,-1.009396 0.173215,-1.518719 l 0.01437,-0.926041 0.737386,0.861412 c 0.823227,0.961691 1.093192,0.888354 1.093192,-0.296969 0,-0.621284 0.07125,-0.731321 0.315423,-0.487145 0.173482,0.173482 0.340185,0.643779 0.370454,1.045104 0.03027,0.401325 0.139361,1.057103 0.242427,1.457285 0.134342,0.521618 0.08564,0.739328 -0.172017,0.769017 -1.199443,0.138208 -1.774732,0.117314 -2.319588,-0.08424 z m 11.352884,-0.521255 c 0,-0.394036 0.96422,-1.979396 1.90981,-3.140083 0.41494,-0.509323 0.86271,-1.062734 0.99505,-1.229802 0.13234,-0.167069 0.39609,-0.366363 0.58611,-0.442878 0.27197,-0.109514 0.26104,-0.198842 -0.0514,-0.419793 -0.51495,-0.364178 -0.0171,-0.364993 3.96875,-0.0065 1.67349,0.150516 4.98353,0.368938 7.35563,0.485383 5.01158,0.246018 6.09295,0.662536 2.46548,0.94964 -2.07157,0.16396 -2.45705,0.128307 -2.84884,-0.26348 -0.58731,-0.587314 -3.05219,-0.434372 -3.73309,0.231632 -1.07939,1.05577 -3.07373,2.068851 -6.03268,3.06446 -3.20422,1.078143 -4.61483,1.313945 -4.61483,0.77143 z M 84.200969,81.549491 c -0.40508,-0.953114 -0.691425,-1.758177 -0.63632,-1.789028 0.0551,-0.03085 0.874096,0.01265 1.819981,0.09668 0.945886,0.08402 1.481667,0.173913 1.190625,0.199752 -0.291041,0.02585 -0.886354,0.333029 -1.322916,0.682641 -0.750274,0.600843 -0.775888,0.683144 -0.467622,1.502593 0.59395,1.578869 0.165692,1.070729 -0.583748,-0.692637 z M 154.30859,70.918879 c -6.01196,-0.414242 -23.82462,-1.084029 -24.05367,-0.904462 -0.3609,0.282937 -2.537,0.573058 -2.53682,0.338214 7e-5,-0.09529 0.24429,-0.815652 0.54271,-1.6008 0.29841,-0.785146 0.48576,-1.575605 0.41631,-1.756572 -0.0834,-0.217482 -0.78322,-0.337568 -2.06406,-0.354211 -3.31777,-0.04311 -20.81482,-0.82967 -24.35623,-1.094904 -2.05122,-0.153627 -3.617889,-0.157432 -4.006369,-0.0097 -0.413843,0.157342 -0.798737,0.663575 -1.095666,1.441071 -0.455131,1.191739 -0.46391,1.197827 -1.549882,1.074727 -0.600686,-0.06809 -4.902158,-0.302344 -9.558824,-0.520565 -4.656667,-0.21822 -8.854523,-0.46146 -9.328566,-0.54053 -1.103284,-0.184029 -1.561227,-0.915255 -1.798111,-2.871158 -0.188344,-1.555094 -0.186532,-1.560732 0.441695,-1.37527 1.046382,0.308906 13.279494,0.911659 27.486023,1.354294 15.20564,0.473763 28.53022,0.955587 32.67604,1.181586 8.28414,0.451586 23.18581,0.839653 25.15536,0.65509 1.30944,-0.122703 2.0844,-0.07633 2.50739,0.150053 0.53162,0.28451 0.67246,0.253241 1.06984,-0.23749 0.25169,-0.310824 0.53761,-1.070816 0.63539,-1.688867 0.0978,-0.618053 0.45445,-2.195295 0.79262,-3.504983 1.0256,-3.971991 1.03938,-4.149458 0.20582,-2.650262 -0.51025,0.917723 -1.09498,1.520891 -1.92371,1.984375 l -1.19062,0.665893 -7.80521,-0.0393 c -13.28318,-0.06691 -74.477233,-2.497757 -74.957076,-2.9776 -0.602567,-0.602568 9.200482,-19.886772 11.916382,-23.44147 0.219223,-0.286931 1.161185,-1.736976 2.259976,-3.478983 0.81888,-1.298241 0.433197,-1.221194 9.054678,-1.808832 13.05381,-0.889744 63.69467,-3.867046 66.27812,-3.896656 4.65326,-0.05333 5.2007,0.50419 4.29432,4.373442 -0.31305,1.336378 -0.64732,2.69767 -0.74282,3.025092 -0.0955,0.327422 -0.0688,0.595312 0.0594,0.595312 0.28089,0 1.68077,-4.92697 1.68077,-5.915596 0,-0.769846 0.38066,-0.938468 0.63315,-0.280473 0.47386,1.234846 -0.10383,3.834063 -4.45989,20.066644 -2.54127,9.469882 -4.74907,17.886669 -4.90621,18.703973 -0.49625,2.580939 -2.25781,4.570976 -4.62851,5.228823 -0.98763,0.27406 -4.07382,0.321622 -7.14375,0.110095 z m 13.6034,-18.731174 c 0.008,-0.145521 -0.10087,-0.08599 -0.24194,0.132292 -0.14106,0.218281 -0.24993,0.575468 -0.24193,0.793749 0.0153,0.419061 0.45632,-0.424862 0.48387,-0.926041 z m 1.03114,-6.82811 c 1.3651,-4.816732 1.61981,-6.092492 1.11577,-5.588447 -0.33775,0.337754 -2.93265,10.432182 -2.68172,10.432182 0.10625,0 0.81093,-2.179683 1.56595,-4.843735 z m -18.93358,19.893671 c -0.62789,-0.181308 -0.96651,-0.504377 -1.25677,-1.199075 -0.21852,-0.522997 -0.39731,-1.055423 -0.39731,-1.183172 0,-0.45326 0.71042,-0.222779 1.32291,0.429186 0.74586,0.79393 1.11655,0.822015 2.06124,0.15617 0.40122,-0.282792 1.33876,-0.557935 2.12916,-0.624848 1.21276,-0.102674 1.52112,-0.02797 2.18281,0.528807 0.81616,0.686753 0.97627,1.348102 0.45304,1.871329 -0.38091,0.380913 -5.19528,0.396925 -6.49508,0.02159 z M 137.24297,64.47768 c -2.11006,-0.101716 -4.19365,-0.201724 -4.63021,-0.222237 -1.07761,-0.05064 -1.35671,-0.278476 -1.57528,-1.285967 -0.14741,-0.679456 -0.10082,-0.859896 0.22203,-0.859896 0.22472,0 0.53603,0.238125 0.69179,0.529167 0.23882,0.446235 0.55399,0.529166 2.01108,0.529166 0.95033,0 1.96776,-0.128386 2.26096,-0.2853 0.5695,-0.304787 7.9665,-0.606594 8.75254,-0.357116 0.25804,0.0819 0.46917,0.355198 0.46917,0.60733 0,0.252129 0.1325,0.59092 0.29445,0.752866 0.89832,0.898319 -0.34495,0.984941 -8.49653,0.591987 z m -25.4439,-0.683379 c -8.46619,-0.340249 -10.27486,-0.540867 -10.27486,-1.139698 0,-0.810551 1.13192,-0.869561 10.95259,-0.570992 14.10059,0.428691 13.99952,0.427151 14.57971,0.221824 0.41475,-0.146783 0.63194,-0.0073 1.00451,0.645102 0.37895,0.663588 0.40578,0.876498 0.13229,1.049988 -0.45926,0.291333 -5.63327,0.226248 -16.39424,-0.206224 z M 92.991401,62.184655 c -0.404129,-0.06122 -0.727604,-0.278852 -0.727604,-0.489524 0,-0.278773 0.350623,-0.379301 1.322917,-0.379301 1.146527,0 1.322917,0.07056 1.322917,0.529166 0,0.54427 -0.261676,0.590606 -1.91823,0.339659 z M 84.3645,40.777549 c 1.22446,-2.716586 2.620658,-4.933763 2.603331,-4.134115 -0.01103,0.509654 -2.022248,4.163674 -2.343878,4.258437 -0.200091,0.05895 -0.316844,0.003 -0.259453,-0.124322 z"
         id="path3830"
         inkscape:connector-curvature="0" />
      <path
         style="fill:#2d2e2f;stroke-width:0.26458335"
         d="m 112.50442,128.23351 c -1.45521,-0.11614 -5.14563,-0.69262 -8.20095,-1.28106 -4.407763,-0.84892 -5.91057,-1.0388 -7.276045,-0.91933 -2.66269,0.23296 -10.183985,-1.24073 -11.829964,-2.31792 -0.790069,-0.51705 -2.297525,-0.89619 -7.088873,-1.78291 -3.346979,-0.61942 -7.037917,-1.35233 -8.202084,-1.6287 -1.164166,-0.27637 -4.140729,-0.85946 -6.614583,-1.29577 -8.709063,-1.53598 -16.151004,-3.10772 -17.197918,-3.63219 -2.778067,-1.39174 -6.763488,-3.59596 -6.670292,-3.68916 0.05736,-0.0574 1.10539,0.35597 2.328958,0.91851 1.223566,0.56253 2.641386,1.15824 3.150709,1.32377 1.806525,0.58716 16.42748,3.12591 16.580113,2.87894 0.08389,-0.13572 -0.07922,-0.55716 -0.362466,-0.93653 -0.470485,-0.63017 -1.050504,-0.79733 -6.71267,-1.9346 -3.408725,-0.68466 -6.762044,-1.42193 -7.451815,-1.63838 -2.016133,-0.63268 -3.518583,-1.66358 -4.598575,-3.15531 -0.554549,-0.76597 -1.182262,-1.49967 -1.394921,-1.63045 -0.212659,-0.13079 -0.812064,-0.64556 -1.332013,-1.14395 l -0.945362,-0.90615 0.926042,0.14466 c 3.186248,0.49774 3.089934,0.49758 3.278698,0.006 0.245298,-0.63923 -0.479009,-1.2682 -1.935445,-1.68071 -1.473155,-0.41724 -3.196704,-1.77276 -3.191285,-2.50986 0.0088,-1.19562 0.227463,-1.22864 3.709765,-0.56009 l 3.297642,0.63308 -2.487763,-0.0474 c -1.788377,-0.0341 -2.519807,0.0455 -2.601738,0.2833 -0.07646,0.22187 0.180668,0.33073 0.781203,0.33073 0.492345,0 1.008283,0.10885 1.146527,0.2419 0.27731,0.26689 9.092222,1.7307 16.917957,2.80941 2.763713,0.38096 5.076751,0.74447 5.140085,0.8078 0.06334,0.0633 -0.187706,0.44134 -0.557867,0.84 -0.722042,0.77764 -1.650047,3.76609 -1.496425,4.81892 0.102323,0.70124 0.823934,1.16588 3.423116,2.20412 1.278038,0.5105 3.116758,0.87416 6.879167,1.36055 2.824197,0.3651 6.583069,0.86026 8.353047,1.10036 3.797814,0.51517 4.780736,0.38532 6.034628,-0.79726 0.738362,-0.69636 0.933691,-1.08335 0.933691,-1.84983 0,-1.0822 0.394033,-1.37491 1.48295,-1.10161 l 0.688017,0.17268 -0.187532,2.3694 c -0.156675,1.97955 -0.124415,2.36939 0.196083,2.36939 0.269484,0 0.525674,-0.68876 0.861124,-2.31511 0.439713,-2.13184 0.580337,-2.42508 1.776508,-3.70457 0.714446,-0.76421 1.234469,-1.49387 1.155607,-1.62147 -0.296119,-0.47914 -1.926378,-1.05651 -3.476186,-1.23113 -1.528509,-0.17222 -1.625873,-0.14811 -2.05662,0.50929 -0.248681,0.37954 -0.694991,0.69007 -0.991798,0.69007 -0.747797,0 -17.291033,-2.60535 -17.811561,-2.80509 -0.690951,-0.26514 -0.47989,-0.63449 0.362578,-0.63449 0.431524,0 4.285676,0.53578 8.564785,1.19062 8.658963,1.32511 9.171461,1.36946 9.171461,0.79375 0,-0.23515 0.242589,-0.39692 0.595313,-0.397 0.327422,-6e-5 10.139225,1.42869 21.804007,3.175 11.66478,1.74632 21.69731,3.17513 22.2945,3.17513 0.59719,0 1.94599,-0.23837 2.99733,-0.52972 1.50944,-0.41828 2.13487,-0.75488 2.97322,-1.60012 l 1.06167,-1.0704 -1.19062,0.65304 c -1.67509,0.91876 -4.10755,1.33219 -6.69897,1.13859 -1.19051,-0.089 -7.10567,-0.9316 -13.14478,-1.87257 -18.762673,-2.92345 -19.677951,-3.06387 -20.967221,-3.21668 -1.051272,-0.12461 -1.282139,-0.25395 -1.417746,-0.79425 -0.08909,-0.35497 -0.276164,-0.64539 -0.415716,-0.64539 -0.360278,0 0.01339,-1.09838 0.571865,-1.68098 0.45502,-0.47467 0.465841,-0.46833 0.338381,0.19844 -0.167751,0.87753 -0.05016,0.86515 0.987269,-0.10395 0.466749,-0.43601 0.963896,-0.72151 1.104776,-0.63444 0.14088,0.0871 0.932444,-0.19624 1.759037,-0.62958 0.826595,-0.43334 2.380705,-0.98128 3.453585,-1.21765 2.70959,-0.59696 2.90877,-0.5756 2.15133,0.23066 -0.34123,0.36322 -0.56854,0.7123 -0.50512,0.77572 0.21155,0.21155 3.63781,-2.21251 3.79902,-2.68778 0.0873,-0.25748 1.06991,-1.053146 2.18349,-1.768134 2.15984,-1.386743 4.3886,-2.198897 10.1926,-3.71416 8.68324,-2.266953 14.22695,-3.98712 14.22695,-4.414512 0,-0.313659 -0.1388,-0.300787 -3.23176,0.299727 -3.24144,0.629344 -3.34197,0.635035 -2.84421,0.161058 0.21309,-0.202901 1.1018,-0.570132 1.97493,-0.816071 1.90859,-0.537606 8.88714,-3.274851 9.26041,-3.632282 0.3777,-0.361661 -1.73815,-0.04055 -5.82083,0.883402 -5.11702,1.158033 -19.19571,4.908158 -20.10833,5.356235 -0.80029,0.392922 -11.58674,3.340127 -12.22451,3.340127 -0.49104,0 -0.42584,-0.274807 0.23111,-0.974093 0.71976,-0.766159 0.45376,-1.080264 -0.50705,-0.598731 -0.4008,0.200872 -0.81802,0.408726 -0.92716,0.461905 -0.10914,0.05318 -0.19844,-0.144339 -0.19844,-0.438918 0,-0.294579 -0.13709,-0.620331 -0.30466,-0.723894 -0.4252,-0.262785 0.4918,-0.901269 1.29442,-0.901269 0.34321,0 0.94553,-0.162555 1.33849,-0.36123 0.39295,-0.198679 1.07165,-0.370055 1.50821,-0.380839 1.16651,-0.02881 6.16859,-1.540746 14.63116,-4.422423 7.35507,-2.504554 9.8428,-3.448878 9.8428,-3.736258 0,-0.07961 -0.59531,-0.06286 -1.32291,0.03721 -1.20917,0.166304 -1.32292,0.136208 -1.32292,-0.349999 0,-0.292571 -0.14883,-0.585314 -0.33073,-0.650541 -0.72413,-0.25966 3.202,-0.457444 4.55661,-0.229545 0.79626,0.133964 1.68923,0.145661 1.98437,0.02601 0.29514,-0.119669 0.41295,-0.225124 0.2618,-0.234347 -3.78923,-0.231238 -9.79194,-0.88143 -9.91063,-1.073486 -0.21085,-0.341162 -7.71719,-1.094055 -16.0083,-1.605648 -2.61937,-0.161626 -6.25078,-0.471257 -8.069789,-0.68807 -5.311868,-0.633137 -6.380578,-0.693573 -6.695504,-0.378648 -0.359545,0.359545 -1.94741,0.3819 -2.164601,0.03047 -0.08805,-0.142462 -0.31618,-1.078235 -0.50696,-2.079492 -0.313812,-1.646939 -0.296297,-2.028857 0.183745,-4.006586 l 0.530624,-2.186112 2.01063,0.129035 c 1.105847,0.07097 2.265392,0.01296 2.576767,-0.128916 0.849566,-0.387085 32.175738,1.351921 32.442408,1.800971 0.23031,0.38784 3.81862,0.789422 4.81632,0.539015 0.36499,-0.09161 0.84743,-0.522018 1.0721,-0.956474 0.42837,-0.828381 1.18864,-1.076661 1.18864,-0.38817 0,0.220959 -0.29022,0.965099 -0.64493,1.653646 -0.89899,1.745091 -1.064,2.937996 -0.59822,4.324797 0.57648,1.716357 0.83257,4.402912 0.46223,4.849135 -0.23927,0.288308 -0.20215,0.399177 0.17168,0.512776 0.26232,0.07971 4.40601,0.444214 9.2082,0.809998 11.45708,0.872691 11.89547,0.94207 12.97496,2.053468 l 0.85558,0.880856 -1.60323,2.377101 c -0.88177,1.307394 -4.17329,6.008495 -7.31447,10.44688 -6.60901,9.338296 -6.63263,9.373636 -6.63263,9.920866 0,0.64295 0.75547,0.77912 1.34792,0.24296 0.57953,-0.52447 7.72293,-10.562299 11.46959,-16.116951 1.27601,-1.891771 2.55964,-3.677708 2.85249,-3.96875 l 0.53247,-0.529167 -0.14399,1.164937 c -0.0966,0.781592 -0.35497,1.347526 -0.78516,1.719792 -0.86559,0.749064 -1.63734,1.802114 -5.739,7.830897 -1.93059,2.837652 -3.68577,5.299462 -3.90041,5.470672 -0.39163,0.31241 -0.26061,1.40849 0.16836,1.40849 0.11571,0 1.79532,-2.29195 3.73247,-5.09323 3.45321,-4.993601 5.15319,-7.288049 5.67695,-7.662119 0.14451,-0.103206 0.36311,0.07539 0.48578,0.396875 0.21033,0.551203 0.30247,0.497808 1.61657,-0.936834 0.76644,-0.836745 1.48751,-1.521354 1.60238,-1.521354 0.11488,0 0.57999,0.379613 1.03359,0.843584 l 0.82473,0.843587 -0.98928,0.94235 c -0.5441,0.518295 -5.02808,7.193131 -9.9644,14.832981 -4.93633,7.63984 -9.34219,14.38915 -9.79082,14.99847 -1.67526,2.27529 -3.84831,3.31757 -7.87986,3.77946 -2.6917,0.30838 -16.93646,0.29853 -20.85768,-0.0144 z m -0.92604,-2.48484 c 0,-0.21455 -0.35932,-0.5759 -0.7985,-0.80301 -0.71996,-0.3723 -0.81396,-0.37264 -0.95564,-0.003 -0.0864,0.22522 -0.0102,0.58658 0.16944,0.803 0.42735,0.51493 1.5847,0.51744 1.5847,0.003 z m 2.38125,0.16796 c 0,-0.35882 -1.28217,-0.85161 -1.46137,-0.56166 -0.0866,0.14004 -0.0838,0.37367 0.006,0.51919 0.19758,0.31969 1.45521,0.3564 1.45521,0.0425 z m 1.98438,-0.0425 c -0.0899,-0.14552 -0.34212,-0.26458 -0.5604,-0.26458 -0.21828,0 -0.32329,0.11906 -0.23335,0.26458 0.0899,0.14552 0.34211,0.26459 0.56039,0.26459 0.21828,0 0.32329,-0.11907 0.23336,-0.26459 z m -7.01146,-0.48816 c 0,-0.42105 -0.96051,-1.093 -1.8033,-1.26156 -0.73047,-0.14609 -0.84254,-0.0955 -0.84254,0.38059 0,0.302 0.20836,0.67045 0.46303,0.81877 0.56223,0.32748 2.18281,0.37366 2.18281,0.0622 z m -3.43959,-0.52405 c 0,-0.12015 -0.26922,-0.47139 -0.59828,-0.78052 -0.71484,-0.67156 -4.77166,-1.3108 -6.390899,-1.00703 -1.503767,0.28211 -0.908505,0.61488 2.381999,1.33162 3.0471,0.66372 4.60718,0.81811 4.60718,0.45593 z m 34.25225,-3.20284 c 0.19567,-0.3166 -0.30206,-0.6303 -0.65448,-0.41249 -0.2959,0.18288 -0.10164,0.65879 0.2689,0.65879 0.12835,0 0.30186,-0.11083 0.38558,-0.2463 z m -2.63454,-6.34185 c 1.66957,-0.77474 3.3073,-2.0911 3.3073,-2.65831 0,-0.84339 -0.5004,-0.89706 -1.5971,-0.1713 -0.57057,0.37758 -1.2483,0.69115 -1.50609,0.69681 -0.72039,0.0158 -3.36818,1.6904 -3.46462,2.19116 -0.12063,0.62636 1.8614,0.59089 3.26051,-0.0584 z m -7.73088,-0.0579 c -1.12069,-1.12068 -23.27389,-4.70742 -31.692034,-5.13112 -2.486589,-0.12516 -2.595224,-0.10958 -1.804959,0.25877 1.117214,0.52074 7.313743,1.66415 17.812253,3.28678 10.04187,1.55205 11.96825,1.80139 14.27427,1.84752 1.25878,0.0252 1.62887,-0.0435 1.41047,-0.26195 z m 14.74234,-4.3185 c 0,-0.20969 -0.11906,-0.45484 -0.26458,-0.54478 -0.14552,-0.0899 -0.26458,-0.1067 -0.26458,-0.0373 0,0.0695 -0.0723,0.3146 -0.1606,0.54478 -0.10539,0.27464 -0.0144,0.41852 0.26458,0.41852 0.23385,0 0.42518,-0.17157 0.42518,-0.38126 z m 3.09945,-12.517154 c 2.65058,-3.733268 4.78098,-6.826017 4.73423,-6.872777 -0.28635,-0.286342 -1.124,0.628827 -3.5201,3.845859 -4.35326,5.844732 -6.69483,9.233962 -6.69483,9.690232 0,0.79058 1.3779,-0.88463 5.4807,-6.663314 z m -9.16484,-9.23245 0.64143,-0.699614 -0.7276,0.46546 c -0.40018,0.256003 -0.7276,0.570831 -0.7276,0.699614 0,0.359757 0.12024,0.290981 0.81377,-0.46546 z M 125.81349,77.314827 c -0.0773,-0.07732 -5.06803,-0.489741 -11.09045,-0.91649 -6.02243,-0.426747 -11.93213,-0.850421 -13.13268,-0.941499 -1.40295,-0.106431 -2.182812,-0.07009 -2.182812,0.101719 0,0.147021 0.327422,0.330099 0.727602,0.406842 0.95384,0.182912 7.50024,0.528394 9.19427,0.485222 0.72761,-0.01855 4.35901,0.185986 8.0698,0.454512 7.75023,0.560832 8.60713,0.602554 8.41427,0.409694 z m 2.96281,-0.38858 c 0.29583,-0.19118 0.14823,-0.257512 -0.5797,-0.260533 -0.53711,-0.0021 -1.05016,0.115012 -1.14009,0.260533 -0.21091,0.341254 1.19174,0.341254 1.71979,0 z M 93.454422,74.677288 c 0,-0.230007 -3.274023,-0.685183 -3.538416,-0.491934 -0.05436,0.03973 -0.02614,0.261688 0.06272,0.493239 0.128726,0.335452 0.498266,0.404973 1.818625,0.342138 0.911386,-0.04337 1.657069,-0.197922 1.657069,-0.343443 z m -10.81118,30.943292 c -2.238142,-0.38151 -2.432185,-0.46201 -2.163119,-0.89736 0.532453,-0.86153 3.244958,-1.61401 6.624299,-1.83767 0.589672,-0.039 0.946809,-0.29247 1.389063,-0.98572 0.750141,-1.1759 0.747413,-1.42567 -0.01558,-1.42567 -0.33599,0 -0.839082,-0.16685 -1.117984,-0.37079 -0.482119,-0.352538 -0.442264,-0.430667 0.809329,-1.586483 1.433335,-1.323658 2.150684,-1.679917 2.559478,-1.271122 0.175282,0.175281 0.517499,0.118123 1.020223,-0.170402 1.055286,-0.60565 1.614646,-0.08195 0.76146,0.712917 -0.509246,0.474435 -0.541369,0.610939 -0.231611,0.984173 0.316379,0.381212 0.185926,0.579988 -1.084455,1.652437 -0.79425,0.67051 -2.076823,1.84886 -2.850163,2.61856 -0.773338,0.7697 -1.51098,1.39946 -1.639208,1.39946 -0.128228,0 -0.389581,0.32743 -0.580784,0.72761 -0.414565,0.86766 -0.765112,0.91299 -3.480951,0.45006 z M 67.99331,105.05331 c 0.257432,-0.0671 0.614619,-0.0627 0.79375,0.01 0.179131,0.0725 -0.03149,0.12736 -0.468056,0.12197 -0.436562,-0.005 -0.583126,-0.0647 -0.325694,-0.13178 z m -6.156598,-0.74269 c -1.527969,-0.33277 -2.63884,-0.61773 -2.468602,-0.63324 0.452781,-0.0413 7.872892,1.05872 8.002805,1.18637 0.322297,0.31669 -3.120038,-0.0274 -5.534203,-0.55313 z m 15.213543,0.13229 c -0.08994,-0.14552 -0.03743,-0.26458 0.116676,-0.26458 0.154109,0 0.280199,0.11906 0.280199,0.26458 0,0.14552 -0.0525,0.26459 -0.116676,0.26459 -0.06417,0 -0.190262,-0.11907 -0.280199,-0.26459 z m -12.256689,-1.60303 c -0.591299,-0.23707 -0.525478,-0.34357 1.706594,-2.76136 1.27689,-1.383124 2.387087,-2.512125 2.467105,-2.508889 0.08002,0.0032 0.435372,0.228695 0.789673,0.50102 0.637524,0.490022 0.639181,0.502775 0.1602,1.233792 -0.899941,1.373487 -3.466777,3.815857 -3.992364,3.798777 -0.283903,-0.009 -0.792946,-0.12773 -1.131208,-0.26334 z m -5.867271,-0.93218 c -5.61186,-0.61028 -18.109248,-2.510121 -18.388542,-2.795411 -0.374269,-0.382302 0.664358,-1.230894 8.253852,-6.743665 8.388827,-6.093384 10.495722,-7.557781 12.092327,-8.404765 1.399193,-0.742262 3.069447,-0.925401 3.069447,-0.336561 0,0.239255 0.251807,0.314092 0.790702,0.235001 1.116097,-0.163809 1.277858,0.488354 0.404982,1.632757 -0.386694,0.506981 -0.792337,1.255527 -0.901428,1.663438 -0.168899,0.631536 -0.06248,0.869799 0.716749,1.604703 0.503303,0.474678 1.0673,0.863049 1.253323,0.863049 0.678836,0 1.175256,0.332161 1.175256,0.786377 0,0.255846 0.245861,0.77774 0.546359,1.159764 0.517612,0.658034 0.492969,1.411866 -0.03548,1.085267 -0.135464,-0.08372 -0.255411,0.182227 -0.266544,0.590998 -0.03354,1.231418 -0.149016,1.545666 -1.133502,3.084663 -0.519795,0.812572 -1.260073,2.106446 -1.645057,2.875272 -0.888204,1.773773 -1.898883,3.126173 -2.307892,3.088213 -0.174496,-0.0162 -1.805546,-0.19128 -3.624557,-0.3891 z m -13.687153,-0.29397 c 0.257432,-0.0671 0.614619,-0.0627 0.79375,0.01 0.179131,0.0725 -0.03149,0.12736 -0.468056,0.12197 -0.436562,-0.005 -0.583125,-0.0647 -0.325694,-0.13177 z m 48.744447,-3.7854 c 0.08994,-0.145521 0.216027,-0.264584 0.280199,-0.264584 0.06417,0 0.116676,0.119063 0.116676,0.264584 0,0.145521 -0.12609,0.264583 -0.280199,0.264583 -0.154109,0 -0.206613,-0.119062 -0.116676,-0.264583 z m 2.255764,-1.045618 c -0.177605,-0.331859 -0.568408,-0.549089 -1.008301,-0.56048 -0.395063,-0.01024 -0.953765,-0.11059 -1.241563,-0.22303 -0.521298,-0.203669 -0.521298,-0.205465 0,-0.478018 0.974254,-0.509368 3.509254,-1.132438 4.60741,-1.132438 0.889746,0 1.133967,0.110387 1.317077,0.595313 0.334064,0.884682 -0.111519,1.46739 -1.370825,1.7927 -0.615987,0.159123 -1.321086,0.347483 -1.566886,0.418576 -0.271844,0.07863 -0.560507,-0.08301 -0.736912,-0.412623 z m 1.244454,-1.495485 c -0.08792,-0.08792 -0.316124,-0.09732 -0.507119,-0.02088 -0.211066,0.08446 -0.148373,0.147156 0.159853,0.159851 0.278914,0.01148 0.435184,-0.05105 0.347266,-0.138965 z M 152.19193,70.830932 c -10.6678,-0.644102 -21.67818,-1.039638 -21.93,-0.787813 -0.1477,0.147698 -0.76574,0.268544 -1.37342,0.268544 h -1.10487 l 0.62743,-1.728552 c 0.46432,-1.27917 0.54176,-1.754402 0.2979,-1.827988 -0.18125,-0.05469 -4.97298,-0.292642 -10.6483,-0.528783 -5.67531,-0.236143 -12.36687,-0.562072 -14.87013,-0.724291 -5.111061,-0.331208 -5.686778,-0.201536 -6.029316,1.358032 -0.216818,0.987163 -0.523613,1.188172 -1.715053,1.123691 -0.513379,-0.02778 -4.743416,-0.231577 -9.400082,-0.452869 -4.656667,-0.221292 -8.854523,-0.465622 -9.328566,-0.542952 -1.10022,-0.179477 -1.545119,-0.902607 -1.758622,-2.858423 -0.154393,-1.414335 -0.127839,-1.53547 0.299511,-1.366284 1.170122,0.46324 9.558822,0.858358 42.405388,1.997342 8.22193,0.285102 17.6874,0.638842 21.03437,0.786085 14.5358,0.639471 19.63222,0.762222 21.54745,0.518988 1.44387,-0.183372 2.20816,-0.163227 2.86865,0.07561 0.79306,0.286777 0.9425,0.267983 1.25374,-0.157665 0.19435,-0.265787 0.43483,-0.978281 0.53439,-1.583323 0.17926,-1.089276 1.49281,-6.398802 2.5304,-10.228201 0.82504,-3.044912 0.84133,-3.140006 0.40793,-2.38125 -0.2078,0.363802 -0.64635,1.673489 -0.97455,2.910417 -1.07137,4.037861 -2.01129,5.282953 -4.40807,5.839322 -1.32591,0.307784 -6.31759,0.302009 -14.7641,-0.01709 -3.78354,-0.142936 -15.03495,-0.560491 -25.00313,-0.927899 -35.101249,-1.293765 -42.32515,-1.654736 -42.505201,-2.123943 -0.225473,-0.587571 1.401476,-3.407063 2.994334,-5.18917 2.564882,-2.86961 3.271187,-3.716821 3.580525,-4.294825 0.162597,-0.303813 0.569828,-0.768072 0.904954,-1.031684 0.335129,-0.263613 1.466557,-1.635094 2.514283,-3.047736 1.047723,-1.412642 2.291741,-2.985159 2.764483,-3.494481 0.472739,-0.509323 1.600896,-2.10938 2.507012,-3.55568 0.906118,-1.446303 1.752081,-2.755989 1.87992,-2.910417 0.127839,-0.154428 0.855679,-1.231174 1.617417,-2.392769 1.650533,-2.516929 0.979286,-2.311317 9.454773,-2.89615 5.75253,-0.396941 10.20376,-0.671234 43.25257,-2.665305 20.73643,-1.251176 22.01601,-1.226864 22.44838,0.426532 0.16784,0.641802 -0.13638,2.499392 -0.7449,4.548504 -0.45318,1.526016 -0.5251,2.538302 -0.15317,2.156014 0.2188,-0.224908 1.30253,-3.839431 1.72468,-5.75228 0.0896,-0.406133 0.27853,-0.666997 0.41979,-0.579697 0.73171,0.452224 0.0994,3.342602 -4.26602,19.501572 -2.48756,9.207852 -4.68883,17.607987 -4.89171,18.666966 -0.43649,2.278332 -0.81999,3.080562 -2.0061,4.196527 -1.58796,1.494028 -2.4607,1.785982 -5.51268,1.844109 -1.52797,0.0291 -4.445,-0.04773 -6.48229,-0.170741 z M 168.37996,50.15372 c -0.0845,-0.211066 -0.14716,-0.148373 -0.15985,0.159854 -0.0115,0.278913 0.051,0.435184 0.13896,0.347265 0.0879,-0.08792 0.0973,-0.316124 0.0209,-0.507119 z m -0.70991,0.202348 c 0,-0.06151 0.65105,-2.400588 1.44677,-5.197945 0.92337,-3.246075 1.3665,-5.229535 1.2249,-5.482569 -0.27972,-0.499833 -0.97427,1.568788 -2.26434,6.744004 -1.05963,4.250806 -1.02603,4.048355 -0.67191,4.048355 0.14552,0 0.26458,-0.05033 0.26458,-0.111845 z m 2.23281,-5.094118 c 1.2815,-4.532429 1.34656,-4.832725 0.96153,-4.438099 -0.21836,0.223797 -2.40059,8.141904 -2.40059,8.710411 0,0.626695 0.33567,-0.36985 1.43906,-4.272312 z m -19.35967,20.043087 c -1.2804,-0.213886 -1.17488,-0.134122 -1.75421,-1.326062 -0.66716,-1.372648 -0.12908,-1.661856 1.01993,-0.548196 l 0.9253,0.896837 0.84912,-0.627782 c 0.67686,-0.500425 1.19352,-0.631478 2.54678,-0.645999 1.55796,-0.01672 1.74341,0.04245 2.25362,0.718924 0.43135,0.571915 0.49203,0.838784 0.27072,1.190625 -0.23127,0.367691 -0.73045,0.460599 -2.63846,0.49108 -1.29428,0.02066 -2.85704,-0.04657 -3.4728,-0.149427 z m -13.14897,-0.837864 c -2.60895,-0.113985 -4.99956,-0.271502 -5.31246,-0.350035 -0.51572,-0.129437 -1.18879,-1.123326 -1.18879,-1.755423 0,-0.47338 0.72838,-0.253371 1.12155,0.338764 0.35197,0.530101 0.57634,0.582636 2.18057,0.510593 0.98352,-0.04417 2.05556,-0.181951 2.38231,-0.306178 0.60671,-0.230672 8.27095,-0.457814 8.39978,-0.248942 0.0391,0.0633 0.27871,0.489548 0.53258,0.947227 0.71654,1.291765 0.99552,1.262065 -8.11554,0.863994 z m -23.03771,-0.65524 c -11.43777,-0.443056 -11.98109,-0.48073 -12.3572,-0.85684 -0.25045,-0.250447 -0.23347,-0.406778 0.078,-0.71823 0.35403,-0.354034 1.71474,-0.355507 12.29178,-0.01331 6.54153,0.211635 12.19612,0.322998 12.56576,0.247473 0.52247,-0.106754 0.75027,0.0088 1.02339,0.519136 0.75341,1.407758 1.05522,1.389523 -13.60171,0.82177 z M 93.189839,61.844996 c -0.408316,-0.175458 -0.26879,-0.231637 0.610928,-0.245985 0.696786,-0.01138 1.07651,0.08428 0.976572,0.245985 -0.194463,0.314651 -0.855271,0.314651 -1.5875,0 z M 85.432803,38.719601 c 0.62045,-1.251032 1.220618,-2.274604 1.333709,-2.274604 0.325578,0 0.232984,0.273227 -0.803434,2.370743 -0.536429,1.085628 -1.129006,2.0199 -1.316842,2.076164 -0.187835,0.05627 0.166119,-0.921271 0.786567,-2.172303 z"
         id="path3828"
         inkscape:connector-curvature="0" />
      <path
         style="fill:#141415;stroke-width:0.26458335"
         d="m 113.29817,128.00454 c -3.03105,-0.20105 -6.34739,-0.76597 -6.078,-1.03536 0.0857,-0.0857 -0.23806,-0.30872 -0.71952,-0.49554 -0.69537,-0.26982 -0.73005,-0.31201 -0.16863,-0.20518 2.78869,0.53066 7.14588,0.68663 17.2823,0.61862 10.26631,-0.0689 11.38244,-0.035 11.45621,0.34811 0.0534,0.27722 -0.17509,0.48956 -0.65885,0.61228 -1.0478,0.2658 -17.616,0.38907 -21.11351,0.15707 z m 24.20938,-1.5602 c 0,-0.12297 0.23812,-0.43908 0.52917,-0.70247 0.90476,-0.8188 0.59409,-0.9079 -1.25677,-0.36041 -2.79074,0.82548 -5.73759,0.68899 -12.33033,-0.57111 -3.19762,-0.61118 -5.65789,-0.9637 -5.79172,-0.82987 -0.13383,0.13383 -0.63573,0.0272 -1.18151,-0.25108 -0.57599,-0.29366 -1.09946,-0.39947 -1.33211,-0.26927 -0.23257,0.13015 -0.75527,0.0248 -1.32942,-0.26791 -0.70192,-0.35785 -1.03654,-0.40737 -1.29625,-0.19184 -0.25997,0.21576 -0.52821,0.17383 -1.0421,-0.16288 -0.40997,-0.26863 -0.97472,-0.39939 -1.38563,-0.32084 -0.38149,0.0729 -1.04559,-0.0494 -1.47577,-0.27187 -0.6216,-0.32144 -0.88576,-0.33977 -1.28687,-0.0893 -0.40804,0.25482 -0.59729,0.23142 -0.988,-0.12217 -0.58123,-0.526 -2.64103,-0.86627 -2.64103,-0.43628 0,0.16436 -0.38697,0.0622 -0.89123,-0.23534 -0.58686,-0.34626 -1.60343,-0.57951 -2.97656,-0.68299 -2.078187,-0.1566 -2.090181,-0.15379 -3.50095,0.82201 l -1.415621,0.97914 -1.129858,-1.21328 c -0.671587,-0.72117 -1.362641,-1.21328 -1.703777,-1.21328 -0.315653,0 -1.045421,-0.24055 -1.621708,-0.53454 -1.22931,-0.62715 -1.252175,-0.78602 -0.614656,-4.27064 0.39097,-2.137 0.541848,-2.48755 1.549831,-3.60091 l 1.116696,-1.23342 2.088189,0.48994 c 1.148504,0.26947 3.11073,0.8258 4.360506,1.2363 1.323268,0.43464 5.080448,1.20114 8.995838,1.83523 7.50602,1.21559 14.51748,2.41052 18.89435,3.22006 3.53503,0.65383 8.7549,0.7727 10.31875,0.23497 1.76009,-0.6052 3.21772,-1.78825 4.84823,-3.93494 2.02353,-2.66412 2.27181,-3.13335 1.76151,-3.32917 -0.21562,-0.0827 -0.39203,-0.30946 -0.39203,-0.50382 0,-0.50036 1.52077,-2.83823 1.84625,-2.83823 0.49463,0 0.27934,1.18624 -0.40902,2.25369 -0.6781,1.05153 -0.42005,0.78554 1.15966,-1.19535 0.40617,-0.50933 2.18025,-3.00964 3.94241,-5.55625 3.29862,-4.767086 4.1316,-5.820837 4.60133,-5.820837 0.61606,0 -0.36537,1.631453 -6.59805,10.968107 -8.90096,13.33377 -8.43351,12.73007 -10.27063,13.26414 -1.01806,0.29595 -1.99022,0.38966 -2.98418,0.28764 -11.36203,-1.16622 -21.86386,-2.43329 -26.34507,-3.17862 -7.35339,-1.22303 -10.176722,-1.59554 -10.399578,-1.37213 -0.339547,0.3404 1.277628,1.46211 2.107918,1.46211 0.44382,0 1.49663,0.17872 2.33957,0.39715 5.79652,1.50202 23.49576,3.56646 30.6453,3.57447 1.53126,0.002 3.09015,0.16498 3.88179,0.40657 0.72761,0.22204 1.59081,0.33755 1.91823,0.25668 0.75785,-0.18718 0.75103,0.0784 -0.0292,1.13589 -0.39115,0.53018 -0.57966,1.08109 -0.50449,1.47433 0.0848,0.44368 -0.0597,0.75373 -0.49269,1.057 -0.66292,0.46433 -1.28872,0.56416 -1.28872,0.20559 z m -47.240153,-2.01336 c -0.741056,-0.74105 -0.847884,-1.59905 -0.228682,-1.83666 0.75779,-0.29079 2.225082,0.94284 2.225082,1.87075 0,0.84909 -1.132559,0.82975 -1.9964,-0.0341 z m -7.550648,-1.83592 c -0.06063,-0.0573 -2.551025,-0.54031 -5.534203,-1.07345 -2.983177,-0.53314 -5.566976,-1.0161 -5.741776,-1.07326 -0.230282,-0.0753 -0.151122,-0.59946 0.287409,-1.90312 0.569209,-1.69213 0.65676,-1.80425 1.471248,-1.88426 0.605401,-0.0595 1.047924,0.0858 1.470472,0.48278 0.503439,0.47296 0.689385,0.51481 1.112687,0.25046 0.407265,-0.25434 1.314751,-0.18162 4.567801,0.36602 2.232763,0.37588 4.183404,0.80726 4.334762,0.95862 0.258114,0.25811 -0.248595,2.16152 -0.936342,3.51729 -0.214786,0.42342 -0.762172,0.61378 -1.032058,0.35892 z m 49.036111,-7.21488 c -0.60072,-0.24239 -0.34387,-0.61852 0.42237,-0.61852 0.41421,0 1.136,-0.19101 1.60399,-0.42448 0.46799,-0.23346 0.91198,-0.3634 0.98663,-0.28874 0.0747,0.0747 -0.12311,0.2179 -0.43948,0.31831 -0.31637,0.10041 -0.8016,0.40894 -1.07827,0.68562 -0.50117,0.50116 -0.86692,0.58135 -1.49524,0.32781 z m -73.091148,-2.74843 c -0.509323,-0.12818 -3.20979,-0.65565 -6.001036,-1.17216 -6.349524,-1.17495 -7.365101,-1.50504 -9.12117,-2.96453 -0.77784,-0.64648 -1.860737,-1.40838 -2.406441,-1.69311 -0.545703,-0.28474 -0.992187,-0.56642 -0.992187,-0.62595 0,-0.18616 3.307276,0.82734 6.010286,1.84183 2.892192,1.0855 5.567508,1.7412 10.26159,2.51506 4.603178,0.75887 4.412393,0.69142 4.316164,1.52602 -0.09353,0.81115 -0.582171,0.94656 -2.067206,0.57284 z m 67.865628,-0.51765 c -1.74625,-0.28262 -5.55625,-0.87991 -8.46667,-1.32731 -6.20883,-0.95444 -12.04471,-2.0254 -12.98504,-2.38291 -0.64198,-0.24408 -0.64862,-0.27018 -0.19009,-0.74681 0.7809,-0.81172 3.18441,-2.39951 5.25133,-3.4691 1.06654,-0.55191 2.37563,-1.36324 2.90908,-1.80296 0.53346,-0.43972 1.52281,-0.937 2.19857,-1.10507 2.19991,-0.54715 4.64832,-1.392451 5.59428,-1.931396 0.50932,-0.290179 2.46132,-0.812232 4.33777,-1.160116 1.87645,-0.347882 3.72192,-0.803159 4.10104,-1.011722 0.37912,-0.208563 0.96219,-0.503407 1.2957,-0.655204 1.2651,-0.575807 3.8757,-2.515819 6.45297,-4.795382 1.89569,-1.676715 2.98915,-2.446843 3.75998,-2.648162 0.5978,-0.15613 1.74176,-0.503806 2.54212,-0.772612 0.80037,-0.268809 2.86971,-0.931691 4.59853,-1.473073 2.43834,-0.763569 3.17411,-1.102088 3.28062,-1.509371 0.1209,-0.462328 0.2985,-0.50799 1.48689,-0.382305 1.94158,0.205343 2.8048,0.594778 2.8048,1.265378 0,0.791099 -2.83785,4.743188 -3.40591,4.743188 -0.79786,0 -2.51879,2.112396 -7.94841,9.756497 -2.13645,3.0078 -2.68503,3.96085 -2.62258,4.55618 0.059,0.56256 -0.28356,1.2597 -1.35556,2.75865 -1.7684,2.47269 -3.10658,3.70737 -4.42642,4.08407 -1.92783,0.55022 -5.84728,0.55428 -9.213,0.01 z m 11.50938,0.32174 c 0,-0.35707 1.30089,-1.48856 1.49187,-1.29759 0.0941,0.0941 0.015,0.35901 -0.17564,0.58876 -0.44508,0.53629 -1.31623,1.00543 -1.31623,0.70883 z m 3.98964,-1.2681 c 0.0127,-0.30823 0.0754,-0.37092 0.15985,-0.15985 0.0764,0.19099 0.067,0.4192 -0.0209,0.50712 -0.0879,0.0879 -0.15045,-0.0684 -0.13896,-0.34727 z m -83.442636,-1.99523 c -2.705889,-0.56047 -4.272977,-1.19847 -5.314392,-2.16362 -0.518608,-0.48063 -1.356011,-0.81823 -2.768773,-1.11624 -2.780345,-0.5865 -7.269882,-1.71133 -7.416792,-1.85823 -0.250693,-0.2507 1.137928,-0.0994 5.1844,0.56472 2.29671,0.37697 4.640151,0.62403 5.207645,0.54903 0.619678,-0.0819 1.253768,0.002 1.5875,0.20941 0.305631,0.19017 1.984442,0.55327 3.730692,0.80688 1.74625,0.25361 3.256597,0.50806 3.35633,0.56545 0.175458,0.10096 -0.733394,2.44563 -1.072235,2.76618 -0.09209,0.0871 -1.214554,-0.0585 -2.494375,-0.32358 z m 37.979553,-1.74132 c -0.327422,-0.0631 -0.595313,-0.20994 -0.595313,-0.32639 0,-0.29658 3.555246,-3.22788 4.578866,-3.77527 1.00945,-0.53983 2.03572,-0.6071 2.03572,-0.13344 0,0.33834 -1.59624,1.96359 -3.514939,3.57882 -0.974011,0.81995 -1.262309,0.8955 -2.504334,0.65628 z m 46.237253,-1.55512 c 8e-4,-0.13339 0.30822,-0.59972 0.68333,-1.03628 l 0.68201,-0.79375 -0.59765,0.92604 c -0.76662,1.18788 -0.76924,1.19097 -0.76769,0.90399 z m -58.275796,-0.55005 c 0.181901,-0.0734 0.479558,-0.0734 0.661459,0 0.181901,0.0734 0.03307,0.13345 -0.330729,0.13345 -0.363803,0 -0.512631,-0.06 -0.33073,-0.13345 z m -2.844271,-0.88311 c 0.363802,-0.28457 1.018646,-0.52167 1.455209,-0.52689 0.436562,-0.005 1.091406,-0.0686 1.455208,-0.14074 0.363802,-0.0722 0.06615,0.16025 -0.661458,0.51654 -0.727604,0.35628 -1.680104,0.65244 -2.116667,0.65814 l -0.79375,0.0103 z m -43.127085,-3.43958 c 0,-0.14552 0.12609,-0.26458 0.280199,-0.26458 0.154109,0 0.206613,0.11906 0.116676,0.26458 -0.08994,0.14552 -0.216027,0.26458 -0.280199,0.26458 -0.06417,0 -0.116676,-0.11906 -0.116676,-0.26458 z m 14.352321,-0.59531 c 0.167576,-0.508844 1.258096,-0.582131 1.258096,-0.0845 0,0.27014 -0.238874,0.41528 -0.683506,0.41528 -0.428508,0 -0.642874,-0.12339 -0.57459,-0.33073 z m -6.414821,-0.702948 c -0.844161,-0.155212 -0.87054,-0.185782 -0.298344,-0.345744 0.762362,-0.213124 3.169579,0.04363 3.364394,0.358854 0.157303,0.254522 -1.652542,0.246783 -3.06605,-0.0131 z M 159.73255,93.097059 c 0,-0.145521 0.11906,-0.338167 0.26458,-0.428104 0.14553,-0.08994 0.26459,-0.04446 0.26459,0.101063 0,0.145521 -0.11906,0.338166 -0.26459,0.428104 -0.14552,0.08994 -0.26458,0.04446 -0.26458,-0.101063 z m -31.3904,-11.150373 c -3.49028,-0.20755 -4.01012,-0.346435 -3.51765,-0.939821 0.40959,-0.493522 -0.24187,-0.750689 -1.40801,-0.555813 -1.13619,0.189873 -4.48763,-0.04205 -20.83394,-1.44173 -1.96453,-0.168217 -3.929065,-0.291225 -4.365627,-0.273352 -0.436563,0.01786 -1.424766,-0.104788 -2.196005,-0.272579 -1.287079,-0.280016 -1.395736,-0.361103 -1.322917,-0.987256 0.0728,-0.626001 0.174072,-0.677844 1.229678,-0.62952 0.632685,0.02896 1.432168,0.237323 1.776627,0.463021 0.800343,0.524404 1.076452,0.517223 1.287782,-0.03349 0.288184,-0.750998 -0.42568,-1.096684 -2.494957,-1.208172 L 94.512756,75.96106 94.443723,74.9223 c -0.115615,-1.739677 -0.127288,-1.735984 4.450419,-1.407916 2.246908,0.16103 9.324028,0.60762 15.726948,0.992425 l 11.64167,0.699646 0.0837,0.727604 c 0.10587,0.920139 1.11869,0.925928 -13.76601,-0.07868 -12.05094,-0.813347 -14.249216,-0.871204 -14.410701,-0.379274 -0.133282,0.406016 1.422619,1.076758 3.354441,1.446085 2.77065,0.529693 7.39879,0.731237 7.72642,0.336468 0.37409,-0.450749 1.02295,-0.422899 0.84672,0.03634 -0.33061,0.861555 2.92797,1.538237 8.34609,1.733159 0.64708,0.02328 1.99587,0.145208 2.9973,0.270954 1.33872,0.168095 2.04297,0.137499 2.65995,-0.115559 1.24028,-0.508715 2.49891,-0.230455 2.95603,0.653521 0.41751,0.807373 0.7717,0.934212 3.34527,1.19798 l 1.75798,0.180179 0.18186,-1.076452 c 0.10003,-0.592051 0.11067,-1.191657 0.0237,-1.332463 -0.087,-0.140806 -0.0569,-0.318659 0.067,-0.39523 0.19121,-0.118173 0.84171,2.591827 0.84171,3.506597 0,0.321805 -0.007,0.321848 -4.93206,0.029 z m -2.807,-3.872751 c 0.1819,-0.0734 0.47956,-0.0734 0.66146,0 0.1819,0.0734 0.0331,0.133453 -0.33073,0.133453 -0.3638,0 -0.51263,-0.06005 -0.33073,-0.133453 z m -3.71006,-0.280313 c 0.46969,-0.05845 1.30313,-0.05941 1.85208,-0.0021 0.54895,0.05728 0.16465,0.105098 -0.854,0.106273 -1.01864,0.0011 -1.46778,-0.04569 -0.99808,-0.104137 z m -2.63685,-0.260755 c 0.32912,-0.06328 0.80537,-0.06088 1.05833,0.0053 0.25297,0.06622 -0.0163,0.118004 -0.5984,0.115067 -0.58208,-0.0029 -0.78905,-0.05712 -0.45993,-0.120406 z M 111.3138,77.19083 c -0.30037,-0.194112 -0.18398,-0.257466 0.47863,-0.260533 0.51714,-0.0024 0.80858,0.104251 0.71199,0.260533 -0.20542,0.332385 -0.67629,0.332385 -1.19062,0 z m 4.30451,0.08123 c 0.25743,-0.06708 0.61462,-0.06267 0.79375,0.0098 0.17913,0.07248 -0.0315,0.127362 -0.46805,0.12197 -0.43657,-0.0054 -0.58313,-0.06469 -0.3257,-0.131773 z m 34.45695,-6.838522 c -3.34698,-0.182964 -9.37933,-0.420809 -13.40522,-0.528547 -4.02589,-0.107739 -7.47059,-0.289079 -7.65488,-0.402977 -0.26465,-0.163562 -0.26984,-0.424857 -0.0247,-1.243147 0.58368,-1.948148 0.65503,-1.967354 6.16515,-1.659607 11.89715,0.664472 25.02128,1.088287 26.11197,0.843227 1.5006,-0.337164 2.08122,-0.144857 2.40997,0.798206 0.24151,0.692769 0.19194,0.862626 -0.41614,1.426183 -1.38368,1.282343 -2.53168,1.349089 -13.18618,0.766662 z M 83.79713,67.231765 C 79.940828,67.031031 76.524205,66.754398 76.204633,66.617029 75.825459,66.454038 75.56164,66.037023 75.445268,65.41671 75.34719,64.893904 75.311,64.424941 75.364848,64.374567 c 0.08389,-0.07848 21.699282,0.790479 21.847219,0.878276 0.02941,0.01746 -0.145098,0.567518 -0.3878,1.222362 L 96.38299,67.66583 93.595789,67.63129 c -1.532959,-0.019 -5.942357,-0.198784 -9.798659,-0.399521 z m 68.66034,-2.455132 c -0.41445,-0.161766 -0.26372,-0.245833 0.6999,-0.390335 0.90448,-0.135636 1.26374,-0.320431 1.36333,-0.701275 0.17311,-0.66199 0.76625,-0.661035 1.36647,0.0021 0.81029,0.895353 0.35122,1.335125 -1.37184,1.314175 -0.84131,-0.01021 -1.76735,-0.111371 -2.05786,-0.224766 z m -3.0558,-0.573048 c -0.43401,-0.810959 -0.16767,-0.864293 0.54228,-0.108588 0.50354,0.535999 0.53872,0.660416 0.18674,0.660416 -0.23853,0 -0.56659,-0.248322 -0.72902,-0.551828 z m -10.04204,-0.241922 c -0.80036,-0.09808 -1.39567,-0.211217 -1.32291,-0.25141 0.0728,-0.0402 1.56104,-0.231272 3.30729,-0.424613 2.88362,-0.319273 3.20535,-0.311883 3.50573,0.08052 0.1819,0.23763 0.33073,0.528362 0.33073,0.64607 0,0.245652 -3.66332,0.213826 -5.82084,-0.05057 z m -25.4,-0.709057 c -9.47519,-0.342852 -11.59748,-0.48166 -11.33761,-0.741526 0.056,-0.05605 4.86237,0.06527 10.6807,0.269615 5.81833,0.204343 11.32293,0.375061 12.23243,0.379376 0.92082,0.0044 1.65365,0.125095 1.65365,0.272426 0,0.305006 0.27489,0.308744 -13.22917,-0.179891 z m 36.6448,-2.89565 c -0.87313,-0.04646 -5.04032,-0.210915 -9.26042,-0.365469 -9.51287,-0.348387 -22.94632,-1.020606 -25.34453,-1.268256 l -1.79661,-0.185526 1.00286,-1.176317 c 1.03504,-1.214064 1.41243,-1.622295 4.28592,-4.636169 0.93255,-0.978119 2.1053,-2.268842 2.60611,-2.868271 0.50081,-0.599429 3.30969,-3.6723 6.24195,-6.828602 2.93226,-3.156302 5.68857,-6.172568 6.12513,-6.702817 1.40593,-1.707639 3.37947,-3.870604 5.95313,-6.524524 l 2.51354,-2.591933 2.77812,-0.276624 c 6.96642,-0.69366 22.74013,-1.619658 24.73855,-1.45228 2.69072,0.225364 3.0427,0.410857 3.0427,1.603492 0,1.60674 -1.04298,5.185388 -1.68454,5.779971 -0.37828,0.350575 -0.80966,1.391483 -1.21129,2.92282 -0.34308,1.308084 -0.89408,3.211775 -1.22444,4.23042 -0.33036,1.018646 -1.09549,3.793284 -1.7003,6.165864 -0.88678,3.478707 -1.03667,4.389662 -0.77431,4.705784 0.26215,0.315872 0.15281,1.01487 -0.56297,3.599069 -1.56995,5.667996 -1.91286,5.891035 -9.11402,5.928016 -2.7649,0.01421 -5.74146,-0.0122 -6.61458,-0.05865 z m 21.33615,-20.207793 c 0,-0.218281 0.10232,-0.635 0.22739,-0.926041 0.14333,-0.333545 0.22739,-0.38245 0.22739,-0.132292 0,0.218281 -0.10233,0.635 -0.22739,0.926041 -0.14333,0.333545 -0.22739,0.38245 -0.22739,0.132292 z m 0.65728,-2.38125 c 0.0924,-0.509323 0.27213,-1.164167 0.39949,-1.455208 0.15896,-0.363268 0.17892,-0.238842 0.0636,0.396875 -0.0924,0.509323 -0.27212,1.164167 -0.39948,1.455208 -0.15897,0.363268 -0.17892,0.238842 -0.0636,-0.396875 z m 0.66563,-2.38125 c 0,-0.218281 0.10233,-0.635 0.22739,-0.926041 0.14333,-0.333545 0.2274,-0.38245 0.2274,-0.132292 0,0.218281 -0.10233,0.635 -0.2274,0.926042 -0.14333,0.333544 -0.22739,0.382449 -0.22739,0.132291 z"
         id="path3826"
         inkscape:connector-curvature="0" />
    </g>
  </g>
</svg>
